<?xml version="1.0" encoding="UTF-8" standalone="no"?>
<!DOCTYPE svg PUBLIC "-//W3C//DTD SVG 1.1//EN"
 "http://www.w3.org/Graphics/SVG/1.1/DTD/svg11.dtd">
<!-- Generated by graphviz version 2.43.0 (0)
 -->
<!-- Title: Anonymous Pages: 1 -->
<svg width="2756pt" height="188pt"
 viewBox="0.00 0.00 2755.59 188.00" xmlns="http://www.w3.org/2000/svg" xmlns:xlink="http://www.w3.org/1999/xlink">
<g id="graph0" class="graph" transform="scale(1 1) rotate(0) translate(4 184)">
<title>Anonymous</title>
<polygon fill="white" stroke="transparent" points="-4,4 -4,-184 2751.59,-184 2751.59,4 -4,4"/>
<!-- DataStoreError -->
<g id="node1" class="node">
<title>DataStoreError</title>
<ellipse fill="none" stroke="black" cx="64.13" cy="-162" rx="64.25" ry="18"/>
<text text-anchor="middle" x="64.13" y="-157.8" font-family="Times,serif" font-size="14.00">DataStoreError</text>
</g>
<!-- Error -->
<g id="node2" class="node">
<title>Error</title>
<ellipse fill="none" stroke="black" cx="64.13" cy="-90" rx="28.53" ry="18"/>
<text text-anchor="middle" x="64.13" y="-85.8" font-family="Times,serif" font-size="14.00">Error</text>
</g>
<!-- DataStoreError&#45;&gt;Error -->
<g id="edge1" class="edge">
<title>DataStoreError&#45;&gt;Error</title>
<path fill="none" stroke="black" d="M64.13,-143.7C64.13,-135.98 64.13,-126.71 64.13,-118.11"/>
<polygon fill="black" stroke="black" points="67.63,-118.1 64.13,-108.1 60.63,-118.1 67.63,-118.1"/>
</g>
<!-- DataStoreCategoryConfiguration -->
<g id="node3" class="node">
<title>DataStoreCategoryConfiguration</title>
<ellipse fill="none" stroke="black" cx="273.13" cy="-162" rx="127.03" ry="18"/>
<text text-anchor="middle" x="273.13" y="-157.8" font-family="Times,serif" font-size="14.00">DataStoreCategoryConfiguration</text>
</g>
<!-- CategoryConfiguration -->
<g id="node4" class="node">
<title>CategoryConfiguration</title>
<ellipse fill="none" stroke="black" cx="273.13" cy="-90" rx="91.81" ry="18"/>
<text text-anchor="middle" x="273.13" y="-85.8" font-family="Times,serif" font-size="14.00">CategoryConfiguration</text>
</g>
<!-- DataStoreCategoryConfiguration&#45;&gt;CategoryConfiguration -->
<g id="edge2" class="edge">
<title>DataStoreCategoryConfiguration&#45;&gt;CategoryConfiguration</title>
<path fill="none" stroke="black" d="M273.13,-143.7C273.13,-135.98 273.13,-126.71 273.13,-118.11"/>
<polygon fill="black" stroke="black" points="276.63,-118.1 273.13,-108.1 269.63,-118.1 276.63,-118.1"/>
</g>
<!-- DataStoreCategoryPlugin -->
<g id="node5" class="node">
<title>DataStoreCategoryPlugin</title>
<ellipse fill="none" stroke="black" cx="539.13" cy="-162" rx="100.96" ry="18"/>
<text text-anchor="middle" x="539.13" y="-157.8" font-family="Times,serif" font-size="14.00">DataStoreCategoryPlugin</text>
</g>
<!-- Plugin -->
<g id="node6" class="node">
<title>Plugin</title>
<ellipse fill="none" stroke="black" cx="416.13" cy="-90" rx="33.41" ry="18"/>
<text text-anchor="middle" x="416.13" y="-85.8" font-family="Times,serif" font-size="14.00">Plugin</text>
</g>
<!-- DataStoreCategoryPlugin&#45;&gt;Plugin -->
<g id="edge3" class="edge">
<title>DataStoreCategoryPlugin&#45;&gt;Plugin</title>
<path fill="none" stroke="black" d="M510.29,-144.59C491.29,-133.77 466.42,-119.62 447.02,-108.58"/>
<polygon fill="black" stroke="black" points="448.67,-105.5 438.25,-103.59 445.21,-111.58 448.67,-105.5"/>
</g>
<!-- DataStoreCategoryBehavior -->
<g id="node7" class="node">
<title>DataStoreCategoryBehavior</title>
<ellipse fill="none" stroke="black" cx="578.13" cy="-90" rx="110.1" ry="18"/>
<text text-anchor="middle" x="578.13" y="-85.8" font-family="Times,serif" font-size="14.00">DataStoreCategoryBehavior</text>
</g>
<!-- DataStoreCategoryPlugin&#45;&gt;DataStoreCategoryBehavior -->
<g id="edge4" class="edge">
<title>DataStoreCategoryPlugin&#45;&gt;DataStoreCategoryBehavior</title>
<path fill="none" stroke="black" d="M548.57,-144.05C553.05,-136.01 558.51,-126.2 563.51,-117.23"/>
<polygon fill="black" stroke="black" points="566.69,-118.71 568.5,-108.28 560.58,-115.31 566.69,-118.71"/>
</g>
<!-- MutationEvent -->
<g id="node8" class="node">
<title>MutationEvent</title>
<ellipse fill="none" stroke="black" cx="740.13" cy="-162" rx="63.32" ry="18"/>
<text text-anchor="middle" x="740.13" y="-157.8" font-family="Times,serif" font-size="14.00">MutationEvent</text>
</g>
<!-- Model -->
<g id="node9" class="node">
<title>Model</title>
<ellipse fill="none" stroke="black" cx="759.13" cy="-90" rx="33.39" ry="18"/>
<text text-anchor="middle" x="759.13" y="-85.8" font-family="Times,serif" font-size="14.00">Model</text>
</g>
<!-- MutationEvent&#45;&gt;Model -->
<g id="edge5" class="edge">
<title>MutationEvent&#45;&gt;Model</title>
<path fill="none" stroke="black" d="M744.82,-143.7C746.94,-135.9 749.49,-126.51 751.84,-117.83"/>
<polygon fill="black" stroke="black" points="755.24,-118.67 754.48,-108.1 748.49,-116.84 755.24,-118.67"/>
</g>
<!-- Codable -->
<g id="node12" class="node">
<title>Codable</title>
<ellipse fill="none" stroke="black" cx="904.13" cy="-18" rx="39.66" ry="18"/>
<text text-anchor="middle" x="904.13" y="-13.8" font-family="Times,serif" font-size="14.00">Codable</text>
</g>
<!-- Model&#45;&gt;Codable -->
<g id="edge13" class="edge">
<title>Model&#45;&gt;Codable</title>
<path fill="none" stroke="black" d="M783.07,-77.44C806.28,-66.24 841.78,-49.1 868.35,-36.27"/>
<polygon fill="black" stroke="black" points="870.21,-39.26 877.69,-31.76 867.16,-32.96 870.21,-39.26"/>
</g>
<!-- GraphQLMutationType -->
<g id="node10" class="node">
<title>GraphQLMutationType</title>
<ellipse fill="none" stroke="black" cx="904.13" cy="-90" rx="93.95" ry="18"/>
<text text-anchor="middle" x="904.13" y="-85.8" font-family="Times,serif" font-size="14.00">GraphQLMutationType</text>
</g>
<!-- String -->
<g id="node11" class="node">
<title>String</title>
<ellipse fill="none" stroke="black" cx="1204.13" cy="-18" rx="31.96" ry="18"/>
<text text-anchor="middle" x="1204.13" y="-13.8" font-family="Times,serif" font-size="14.00">String</text>
</g>
<!-- GraphQLMutationType&#45;&gt;String -->
<g id="edge6" class="edge">
<title>GraphQLMutationType&#45;&gt;String</title>
<path fill="none" stroke="black" d="M961.26,-75.67C1021.19,-61.69 1113.72,-40.1 1165.55,-28"/>
<polygon fill="black" stroke="black" points="1166.41,-31.39 1175.35,-25.71 1164.82,-24.58 1166.41,-31.39"/>
</g>
<!-- GraphQLMutationType&#45;&gt;Codable -->
<g id="edge7" class="edge">
<title>GraphQLMutationType&#45;&gt;Codable</title>
<path fill="none" stroke="black" d="M904.13,-71.7C904.13,-63.98 904.13,-54.71 904.13,-46.11"/>
<polygon fill="black" stroke="black" points="907.63,-46.1 904.13,-36.1 900.63,-46.1 907.63,-46.1"/>
</g>
<!-- GraphQLQueryType -->
<g id="node13" class="node">
<title>GraphQLQueryType</title>
<ellipse fill="none" stroke="black" cx="1100.13" cy="-90" rx="83.8" ry="18"/>
<text text-anchor="middle" x="1100.13" y="-85.8" font-family="Times,serif" font-size="14.00">GraphQLQueryType</text>
</g>
<!-- GraphQLQueryType&#45;&gt;String -->
<g id="edge8" class="edge">
<title>GraphQLQueryType&#45;&gt;String</title>
<path fill="none" stroke="black" d="M1124.51,-72.59C1139.91,-62.22 1159.86,-48.79 1175.94,-37.97"/>
<polygon fill="black" stroke="black" points="1178.08,-40.75 1184.42,-32.26 1174.17,-34.94 1178.08,-40.75"/>
</g>
<!-- GraphQLSubscriptionType -->
<g id="node14" class="node">
<title>GraphQLSubscriptionType</title>
<ellipse fill="none" stroke="black" cx="1308.13" cy="-90" rx="106.02" ry="18"/>
<text text-anchor="middle" x="1308.13" y="-85.8" font-family="Times,serif" font-size="14.00">GraphQLSubscriptionType</text>
</g>
<!-- GraphQLSubscriptionType&#45;&gt;String -->
<g id="edge9" class="edge">
<title>GraphQLSubscriptionType&#45;&gt;String</title>
<path fill="none" stroke="black" d="M1283.48,-72.41C1268.07,-62.04 1248.19,-48.66 1232.18,-37.88"/>
<polygon fill="black" stroke="black" points="1233.98,-34.88 1223.73,-32.2 1230.08,-40.68 1233.98,-34.88"/>
</g>
<!-- List -->
<g id="node15" class="node">
<title>List</title>
<ellipse fill="none" stroke="black" cx="1688.13" cy="-90" rx="27" ry="18"/>
<text text-anchor="middle" x="1688.13" y="-85.8" font-family="Times,serif" font-size="14.00">List</text>
</g>
<!-- List&#45;&gt;Codable -->
<g id="edge11" class="edge">
<title>List&#45;&gt;Codable</title>
<path fill="none" stroke="black" d="M1668.06,-77.93C1663,-75.59 1657.48,-73.4 1652.13,-72 1635.17,-67.56 1117.21,-33.07 953.33,-22.24"/>
<polygon fill="black" stroke="black" points="953.27,-18.73 943.06,-21.56 952.8,-25.72 953.27,-18.73"/>
</g>
<!-- Collection -->
<g id="node16" class="node">
<title>Collection</title>
<ellipse fill="none" stroke="black" cx="1602.13" cy="-18" rx="46.9" ry="18"/>
<text text-anchor="middle" x="1602.13" y="-13.8" font-family="Times,serif" font-size="14.00">Collection</text>
</g>
<!-- List&#45;&gt;Collection -->
<g id="edge10" class="edge">
<title>List&#45;&gt;Collection</title>
<path fill="none" stroke="black" d="M1671.54,-75.5C1659.55,-65.74 1643.07,-52.33 1629.19,-41.02"/>
<polygon fill="black" stroke="black" points="1631.32,-38.25 1621.36,-34.65 1626.91,-43.68 1631.32,-38.25"/>
</g>
<!-- ExpressibleByArrayLiteral -->
<g id="node17" class="node">
<title>ExpressibleByArrayLiteral</title>
<ellipse fill="none" stroke="black" cx="1773.13" cy="-18" rx="105.76" ry="18"/>
<text text-anchor="middle" x="1773.13" y="-13.8" font-family="Times,serif" font-size="14.00">ExpressibleByArrayLiteral</text>
</g>
<!-- List&#45;&gt;ExpressibleByArrayLiteral -->
<g id="edge12" class="edge">
<title>List&#45;&gt;ExpressibleByArrayLiteral</title>
<path fill="none" stroke="black" d="M1704.52,-75.5C1715.86,-66.16 1731.26,-53.48 1744.6,-42.5"/>
<polygon fill="black" stroke="black" points="1747.08,-44.98 1752.58,-35.92 1742.63,-39.58 1747.08,-44.98"/>
</g>
<!-- ModelFieldType -->
<g id="node18" class="node">
<title>ModelFieldType</title>
<ellipse fill="none" stroke="black" cx="1834.13" cy="-162" rx="68.86" ry="18"/>
<text text-anchor="middle" x="1834.13" y="-157.8" font-family="Times,serif" font-size="14.00">ModelFieldType</text>
</g>
<!-- CustomStringConvertible -->
<g id="node19" class="node">
<title>CustomStringConvertible</title>
<ellipse fill="none" stroke="black" cx="1834.13" cy="-90" rx="101" ry="18"/>
<text text-anchor="middle" x="1834.13" y="-85.8" font-family="Times,serif" font-size="14.00">CustomStringConvertible</text>
</g>
<!-- ModelFieldType&#45;&gt;CustomStringConvertible -->
<g id="edge14" class="edge">
<title>ModelFieldType&#45;&gt;CustomStringConvertible</title>
<path fill="none" stroke="black" d="M1834.13,-143.7C1834.13,-135.98 1834.13,-126.71 1834.13,-118.11"/>
<polygon fill="black" stroke="black" points="1837.63,-118.1 1834.13,-108.1 1830.63,-118.1 1837.63,-118.1"/>
</g>
<!-- AnyModel -->
<g id="node20" class="node">
<title>AnyModel</title>
<ellipse fill="none" stroke="black" cx="870.13" cy="-162" rx="48.35" ry="18"/>
<text text-anchor="middle" x="870.13" y="-157.8" font-family="Times,serif" font-size="14.00">AnyModel</text>
</g>
<!-- AnyModel&#45;&gt;Model -->
<g id="edge15" class="edge">
<title>AnyModel&#45;&gt;Model</title>
<path fill="none" stroke="black" d="M846.59,-146.15C829.63,-135.46 806.64,-120.97 788.49,-109.52"/>
<polygon fill="black" stroke="black" points="790.34,-106.55 780.01,-104.17 786.6,-112.47 790.34,-106.55"/>
</g>
<!-- ModelKey -->
<g id="node21" class="node">
<title>ModelKey</title>
<ellipse fill="none" stroke="black" cx="2127.13" cy="-162" rx="47.86" ry="18"/>
<text text-anchor="middle" x="2127.13" y="-157.8" font-family="Times,serif" font-size="14.00">ModelKey</text>
</g>
<!-- CodingKey -->
<g id="node22" class="node">
<title>CodingKey</title>
<ellipse fill="none" stroke="black" cx="2004.13" cy="-90" rx="50.77" ry="18"/>
<text text-anchor="middle" x="2004.13" y="-85.8" font-family="Times,serif" font-size="14.00">CodingKey</text>
</g>
<!-- ModelKey&#45;&gt;CodingKey -->
<g id="edge16" class="edge">
<title>ModelKey&#45;&gt;CodingKey</title>
<path fill="none" stroke="black" d="M2101.94,-146.67C2083.78,-136.33 2059.03,-122.25 2038.97,-110.83"/>
<polygon fill="black" stroke="black" points="2040.55,-107.7 2030.13,-105.8 2037.09,-113.79 2040.55,-107.7"/>
</g>
<!-- CaseIterable -->
<g id="node23" class="node">
<title>CaseIterable</title>
<ellipse fill="none" stroke="black" cx="2127.13" cy="-90" rx="54.1" ry="18"/>
<text text-anchor="middle" x="2127.13" y="-85.8" font-family="Times,serif" font-size="14.00">CaseIterable</text>
</g>
<!-- ModelKey&#45;&gt;CaseIterable -->
<g id="edge17" class="edge">
<title>ModelKey&#45;&gt;CaseIterable</title>
<path fill="none" stroke="black" d="M2127.13,-143.7C2127.13,-135.98 2127.13,-126.71 2127.13,-118.11"/>
<polygon fill="black" stroke="black" points="2130.63,-118.1 2127.13,-108.1 2123.63,-118.1 2130.63,-118.1"/>
</g>
<!-- QueryFieldOperation -->
<g id="node24" class="node">
<title>QueryFieldOperation</title>
<ellipse fill="none" stroke="black" cx="2285.13" cy="-90" rx="85.99" ry="18"/>
<text text-anchor="middle" x="2285.13" y="-85.8" font-family="Times,serif" font-size="14.00">QueryFieldOperation</text>
</g>
<!-- ModelKey&#45;&gt;QueryFieldOperation -->
<g id="edge18" class="edge">
<title>ModelKey&#45;&gt;QueryFieldOperation</title>
<path fill="none" stroke="black" d="M2156.84,-147.83C2180.51,-137.35 2214.01,-122.51 2240.84,-110.62"/>
<polygon fill="black" stroke="black" points="2242.3,-113.8 2250.02,-106.55 2239.46,-107.4 2242.3,-113.8"/>
</g>
<!-- QueryPredicateGroupType -->
<g id="node25" class="node">
<title>QueryPredicateGroupType</title>
<ellipse fill="none" stroke="black" cx="1538.13" cy="-90" rx="105.01" ry="18"/>
<text text-anchor="middle" x="1538.13" y="-85.8" font-family="Times,serif" font-size="14.00">QueryPredicateGroupType</text>
</g>
<!-- QueryPredicateGroupType&#45;&gt;String -->
<g id="edge19" class="edge">
<title>QueryPredicateGroupType&#45;&gt;String</title>
<path fill="none" stroke="black" d="M1474.12,-75.59C1406,-61.31 1300.38,-39.17 1243.54,-27.26"/>
<polygon fill="black" stroke="black" points="1244.02,-23.78 1233.51,-25.16 1242.58,-30.64 1244.02,-23.78"/>
</g>
<!-- QueryPredicateGroup -->
<g id="node26" class="node">
<title>QueryPredicateGroup</title>
<ellipse fill="none" stroke="black" cx="2441.13" cy="-162" rx="87.91" ry="18"/>
<text text-anchor="middle" x="2441.13" y="-157.8" font-family="Times,serif" font-size="14.00">QueryPredicateGroup</text>
</g>
<!-- QueryPredicate -->
<g id="node27" class="node">
<title>QueryPredicate</title>
<ellipse fill="none" stroke="black" cx="2551.13" cy="-90" rx="65.21" ry="18"/>
<text text-anchor="middle" x="2551.13" y="-85.8" font-family="Times,serif" font-size="14.00">QueryPredicate</text>
</g>
<!-- QueryPredicateGroup&#45;&gt;QueryPredicate -->
<g id="edge20" class="edge">
<title>QueryPredicateGroup&#45;&gt;QueryPredicate</title>
<path fill="none" stroke="black" d="M2466.64,-144.76C2481.85,-135.09 2501.33,-122.69 2517.75,-112.24"/>
<polygon fill="black" stroke="black" points="2519.95,-114.99 2526.51,-106.67 2516.19,-109.08 2519.95,-114.99"/>
</g>
<!-- QueryPredicateOperation -->
<g id="node28" class="node">
<title>QueryPredicateOperation</title>
<ellipse fill="none" stroke="black" cx="2647.13" cy="-162" rx="100.43" ry="18"/>
<text text-anchor="middle" x="2647.13" y="-157.8" font-family="Times,serif" font-size="14.00">QueryPredicateOperation</text>
</g>
<!-- QueryPredicateOperation&#45;&gt;QueryPredicate -->
<g id="edge21" class="edge">
<title>QueryPredicateOperation&#45;&gt;QueryPredicate</title>
<path fill="none" stroke="black" d="M2624.38,-144.41C2611.52,-135.04 2595.28,-123.2 2581.37,-113.05"/>
<polygon fill="black" stroke="black" points="2583.19,-110.05 2573.05,-106.99 2579.07,-115.71 2583.19,-110.05"/>
</g>
<!-- QueryField -->
<g id="node29" class="node">
<title>QueryField</title>
<ellipse fill="none" stroke="black" cx="2285.13" cy="-162" rx="50.27" ry="18"/>
<text text-anchor="middle" x="2285.13" y="-157.8" font-family="Times,serif" font-size="14.00">QueryField</text>
</g>
<!-- QueryField&#45;&gt;QueryFieldOperation -->
<g id="edge22" class="edge">
<title>QueryField&#45;&gt;QueryFieldOperation</title>
<path fill="none" stroke="black" d="M2285.13,-143.7C2285.13,-135.98 2285.13,-126.71 2285.13,-118.11"/>
<polygon fill="black" stroke="black" points="2288.63,-118.1 2285.13,-108.1 2281.63,-118.1 2288.63,-118.1"/>
</g>
</g>
</svg>
