<?xml version="1.0" encoding="UTF-8" standalone="no"?>
<!DOCTYPE svg PUBLIC "-//W3C//DTD SVG 1.1//EN"
 "http://www.w3.org/Graphics/SVG/1.1/DTD/svg11.dtd">
<!-- Generated by graphviz version 2.43.0 (0)
 -->
<!-- Title: Anonymous Pages: 1 -->
<svg width="1052pt" height="635pt"
 viewBox="0.00 0.00 1052.00 635.00" xmlns="http://www.w3.org/2000/svg" xmlns:xlink="http://www.w3.org/1999/xlink">
<g id="graph0" class="graph" transform="scale(1 1) rotate(0) translate(4 631)">
<title>Anonymous</title>
<polygon fill="white" stroke="transparent" points="-4,4 -4,-631 1048,-631 1048,4 -4,4"/>
<!-- DataStoreError -->
<g id="node1" class="node">
<title>DataStoreError</title>
<ellipse fill="none" stroke="black" cx="577.55" cy="-492" rx="64.25" ry="18"/>
<text text-anchor="middle" x="577.55" y="-487.8" font-family="Times,serif" font-size="14.00">DataStoreError</text>
</g>
<!-- Error -->
<g id="node2" class="node">
<title>Error</title>
<ellipse fill="none" stroke="black" cx="678.72" cy="-476.89" rx="28.53" ry="18"/>
<text text-anchor="middle" x="678.72" y="-472.69" font-family="Times,serif" font-size="14.00">Error</text>
</g>
<!-- DataStoreError&#45;&gt;Error -->
<g id="edge1" class="edge">
<title>DataStoreError&#45;&gt;Error</title>
<path fill="none" stroke="black" d="M634.34,-483.52C636.44,-483.2 638.52,-482.89 640.57,-482.59"/>
<polygon fill="black" stroke="black" points="641.14,-486.04 650.51,-481.1 640.11,-479.12 641.14,-486.04"/>
</g>
<!-- DataStoreCategoryConfiguration -->
<g id="node3" class="node">
<title>DataStoreCategoryConfiguration</title>
<ellipse fill="none" stroke="black" cx="721.47" cy="-376.73" rx="127.03" ry="18"/>
<text text-anchor="middle" x="721.47" y="-372.53" font-family="Times,serif" font-size="14.00">DataStoreCategoryConfiguration</text>
</g>
<!-- CategoryConfiguration -->
<g id="node4" class="node">
<title>CategoryConfiguration</title>
<ellipse fill="none" stroke="black" cx="952.8" cy="-342.16" rx="91.81" ry="18"/>
<text text-anchor="middle" x="952.8" y="-337.96" font-family="Times,serif" font-size="14.00">CategoryConfiguration</text>
</g>
<!-- DataStoreCategoryConfiguration&#45;&gt;CategoryConfiguration -->
<g id="edge2" class="edge">
<title>DataStoreCategoryConfiguration&#45;&gt;CategoryConfiguration</title>
<path fill="none" stroke="black" d="M808.92,-363.66C828.75,-360.7 849.76,-357.56 869.42,-354.62"/>
<polygon fill="black" stroke="black" points="870.19,-358.04 879.56,-353.11 869.15,-351.12 870.19,-358.04"/>
</g>
<!-- DataStoreCategoryPlugin -->
<g id="node5" class="node">
<title>DataStoreCategoryPlugin</title>
<ellipse fill="none" stroke="black" cx="818.92" cy="-66.45" rx="100.96" ry="18"/>
<text text-anchor="middle" x="818.92" y="-62.25" font-family="Times,serif" font-size="14.00">DataStoreCategoryPlugin</text>
</g>
<!-- Plugin -->
<g id="node6" class="node">
<title>Plugin</title>
<ellipse fill="none" stroke="black" cx="886.81" cy="-110.6" rx="33.41" ry="18"/>
<text text-anchor="middle" x="886.81" y="-106.4" font-family="Times,serif" font-size="14.00">Plugin</text>
</g>
<!-- DataStoreCategoryPlugin&#45;&gt;Plugin -->
<g id="edge3" class="edge">
<title>DataStoreCategoryPlugin&#45;&gt;Plugin</title>
<path fill="none" stroke="black" d="M845.75,-83.9C849.42,-86.29 853.21,-88.75 856.93,-91.17"/>
<polygon fill="black" stroke="black" points="855.11,-94.16 865.4,-96.68 858.92,-88.29 855.11,-94.16"/>
</g>
<!-- DataStoreCategoryBehavior -->
<g id="node7" class="node">
<title>DataStoreCategoryBehavior</title>
<ellipse fill="none" stroke="black" cx="811.82" cy="-18.33" rx="110.1" ry="18"/>
<text text-anchor="middle" x="811.82" y="-14.13" font-family="Times,serif" font-size="14.00">DataStoreCategoryBehavior</text>
</g>
<!-- DataStoreCategoryPlugin&#45;&gt;DataStoreCategoryBehavior -->
<g id="edge4" class="edge">
<title>DataStoreCategoryPlugin&#45;&gt;DataStoreCategoryBehavior</title>
<path fill="none" stroke="black" d="M816.24,-48.26C816.15,-47.66 816.06,-47.06 815.97,-46.45"/>
<polygon fill="black" stroke="black" points="819.43,-45.93 814.51,-36.55 812.51,-46.95 819.43,-45.93"/>
</g>
<!-- MutationEvent -->
<g id="node8" class="node">
<title>MutationEvent</title>
<ellipse fill="none" stroke="black" cx="681.86" cy="-307.49" rx="63.32" ry="18"/>
<text text-anchor="middle" x="681.86" y="-303.29" font-family="Times,serif" font-size="14.00">MutationEvent</text>
</g>
<!-- Model -->
<g id="node9" class="node">
<title>Model</title>
<ellipse fill="none" stroke="black" cx="642.78" cy="-255.71" rx="33.39" ry="18"/>
<text text-anchor="middle" x="642.78" y="-251.51" font-family="Times,serif" font-size="14.00">Model</text>
</g>
<!-- MutationEvent&#45;&gt;Model -->
<g id="edge5" class="edge">
<title>MutationEvent&#45;&gt;Model</title>
<path fill="none" stroke="black" d="M668.41,-289.67C666.27,-286.84 664.02,-283.86 661.78,-280.89"/>
<polygon fill="black" stroke="black" points="664.41,-278.56 655.6,-272.69 658.83,-282.78 664.41,-278.56"/>
</g>
<!-- Codable -->
<g id="node12" class="node">
<title>Codable</title>
<ellipse fill="none" stroke="black" cx="557.15" cy="-248.9" rx="39.66" ry="18"/>
<text text-anchor="middle" x="557.15" y="-244.7" font-family="Times,serif" font-size="14.00">Codable</text>
</g>
<!-- Model&#45;&gt;Codable -->
<g id="edge13" class="edge">
<title>Model&#45;&gt;Codable</title>
<path fill="none" stroke="black" d="M609.92,-253.1C608.81,-253.01 607.69,-252.92 606.57,-252.83"/>
<polygon fill="black" stroke="black" points="606.62,-249.32 596.37,-252.02 606.06,-256.3 606.62,-249.32"/>
</g>
<!-- GraphQLMutationType -->
<g id="node10" class="node">
<title>GraphQLMutationType</title>
<ellipse fill="none" stroke="black" cx="466.32" cy="-295.85" rx="93.95" ry="18"/>
<text text-anchor="middle" x="466.32" y="-291.65" font-family="Times,serif" font-size="14.00">GraphQLMutationType</text>
</g>
<!-- String -->
<g id="node11" class="node">
<title>String</title>
<ellipse fill="none" stroke="black" cx="305.54" cy="-236.37" rx="31.96" ry="18"/>
<text text-anchor="middle" x="305.54" y="-232.17" font-family="Times,serif" font-size="14.00">String</text>
</g>
<!-- GraphQLMutationType&#45;&gt;String -->
<g id="edge6" class="edge">
<title>GraphQLMutationType&#45;&gt;String</title>
<path fill="none" stroke="black" d="M422.81,-279.76C397.48,-270.38 365.9,-258.7 341.89,-249.82"/>
<polygon fill="black" stroke="black" points="343.03,-246.51 332.44,-246.32 340.6,-253.07 343.03,-246.51"/>
</g>
<!-- GraphQLMutationType&#45;&gt;Codable -->
<g id="edge7" class="edge">
<title>GraphQLMutationType&#45;&gt;Codable</title>
<path fill="none" stroke="black" d="M499.11,-278.9C506.47,-275.1 514.31,-271.04 521.77,-267.19"/>
<polygon fill="black" stroke="black" points="523.68,-270.14 530.95,-262.44 520.46,-263.92 523.68,-270.14"/>
</g>
<!-- GraphQLQueryType -->
<g id="node13" class="node">
<title>GraphQLQueryType</title>
<ellipse fill="none" stroke="black" cx="277.18" cy="-280.87" rx="83.8" ry="18"/>
<text text-anchor="middle" x="277.18" y="-276.67" font-family="Times,serif" font-size="14.00">GraphQLQueryType</text>
</g>
<!-- GraphQLQueryType&#45;&gt;String -->
<g id="edge8" class="edge">
<title>GraphQLQueryType&#45;&gt;String</title>
<path fill="none" stroke="black" d="M288.56,-263.03C288.81,-262.63 289.07,-262.23 289.32,-261.83"/>
<polygon fill="black" stroke="black" points="292.3,-263.67 294.72,-253.35 286.4,-259.9 292.3,-263.67"/>
</g>
<!-- GraphQLSubscriptionType -->
<g id="node14" class="node">
<title>GraphQLSubscriptionType</title>
<ellipse fill="none" stroke="black" cx="335.47" cy="-192.03" rx="106.02" ry="18"/>
<text text-anchor="middle" x="335.47" y="-187.83" font-family="Times,serif" font-size="14.00">GraphQLSubscriptionType</text>
</g>
<!-- GraphQLSubscriptionType&#45;&gt;String -->
<g id="edge9" class="edge">
<title>GraphQLSubscriptionType&#45;&gt;String</title>
<path fill="none" stroke="black" d="M323.3,-210.07C323.1,-210.36 322.91,-210.64 322.71,-210.93"/>
<polygon fill="black" stroke="black" points="319.72,-209.11 317.03,-219.36 325.52,-213.03 319.72,-209.11"/>
</g>
<!-- List -->
<g id="node15" class="node">
<title>List</title>
<ellipse fill="none" stroke="black" cx="690.59" cy="-208.58" rx="27" ry="18"/>
<text text-anchor="middle" x="690.59" y="-204.38" font-family="Times,serif" font-size="14.00">List</text>
</g>
<!-- List&#45;&gt;Codable -->
<g id="edge11" class="edge">
<title>List&#45;&gt;Codable</title>
<path fill="none" stroke="black" d="M665.8,-216.07C647.37,-221.64 621.76,-229.38 600.03,-235.94"/>
<polygon fill="black" stroke="black" points="598.92,-232.62 590.36,-238.87 600.94,-239.32 598.92,-232.62"/>
</g>
<!-- Collection -->
<g id="node16" class="node">
<title>Collection</title>
<ellipse fill="none" stroke="black" cx="709.21" cy="-155.11" rx="46.9" ry="18"/>
<text text-anchor="middle" x="709.21" y="-150.91" font-family="Times,serif" font-size="14.00">Collection</text>
</g>
<!-- List&#45;&gt;Collection -->
<g id="edge10" class="edge">
<title>List&#45;&gt;Collection</title>
<path fill="none" stroke="black" d="M696.79,-190.78C697.72,-188.1 698.7,-185.29 699.68,-182.47"/>
<polygon fill="black" stroke="black" points="702.99,-183.62 702.97,-173.02 696.38,-181.31 702.99,-183.62"/>
</g>
<!-- ExpressibleByArrayLiteral -->
<g id="node17" class="node">
<title>ExpressibleByArrayLiteral</title>
<ellipse fill="none" stroke="black" cx="876.23" cy="-191.74" rx="105.76" ry="18"/>
<text text-anchor="middle" x="876.23" y="-187.54" font-family="Times,serif" font-size="14.00">ExpressibleByArrayLiteral</text>
</g>
<!-- List&#45;&gt;ExpressibleByArrayLiteral -->
<g id="edge12" class="edge">
<title>List&#45;&gt;ExpressibleByArrayLiteral</title>
<path fill="none" stroke="black" d="M717.58,-206.13C732.53,-204.78 752.18,-202.99 772.53,-201.15"/>
<polygon fill="black" stroke="black" points="772.92,-204.63 782.56,-200.24 772.28,-197.66 772.92,-204.63"/>
</g>
<!-- ModelFieldType -->
<g id="node18" class="node">
<title>ModelFieldType</title>
<ellipse fill="none" stroke="black" cx="366.3" cy="-72.02" rx="68.86" ry="18"/>
<text text-anchor="middle" x="366.3" y="-67.82" font-family="Times,serif" font-size="14.00">ModelFieldType</text>
</g>
<!-- CustomStringConvertible -->
<g id="node19" class="node">
<title>CustomStringConvertible</title>
<ellipse fill="none" stroke="black" cx="547.97" cy="-44.87" rx="101" ry="18"/>
<text text-anchor="middle" x="547.97" y="-40.67" font-family="Times,serif" font-size="14.00">CustomStringConvertible</text>
</g>
<!-- ModelFieldType&#45;&gt;CustomStringConvertible -->
<g id="edge14" class="edge">
<title>ModelFieldType&#45;&gt;CustomStringConvertible</title>
<path fill="none" stroke="black" d="M426.29,-63.05C437.24,-61.42 448.87,-59.68 460.43,-57.95"/>
<polygon fill="black" stroke="black" points="461.18,-61.38 470.55,-56.44 460.14,-54.46 461.18,-61.38"/>
</g>
<!-- AnyModel -->
<g id="node20" class="node">
<title>AnyModel</title>
<ellipse fill="none" stroke="black" cx="596.9" cy="-125.7" rx="48.35" ry="18"/>
<text text-anchor="middle" x="596.9" y="-121.5" font-family="Times,serif" font-size="14.00">AnyModel</text>
</g>
<!-- AnyModel&#45;&gt;Model -->
<g id="edge15" class="edge">
<title>AnyModel&#45;&gt;Model</title>
<path fill="none" stroke="black" d="M603.28,-143.78C611.02,-165.71 624.14,-202.89 633.12,-228.34"/>
<polygon fill="black" stroke="black" points="629.83,-229.52 636.46,-237.79 636.43,-227.19 629.83,-229.52"/>
</g>
<!-- ModelKey -->
<g id="node21" class="node">
<title>ModelKey</title>
<ellipse fill="none" stroke="black" cx="384.13" cy="-519.1" rx="47.86" ry="18"/>
<text text-anchor="middle" x="384.13" y="-514.9" font-family="Times,serif" font-size="14.00">ModelKey</text>
</g>
<!-- CodingKey -->
<g id="node22" class="node">
<title>CodingKey</title>
<ellipse fill="none" stroke="black" cx="494.4" cy="-423.13" rx="50.77" ry="18"/>
<text text-anchor="middle" x="494.4" y="-418.93" font-family="Times,serif" font-size="14.00">CodingKey</text>
</g>
<!-- ModelKey&#45;&gt;CodingKey -->
<g id="edge16" class="edge">
<title>ModelKey&#45;&gt;CodingKey</title>
<path fill="none" stroke="black" d="M403.34,-502.39C421.01,-487 447.42,-464.01 467.26,-446.75"/>
<polygon fill="black" stroke="black" points="469.79,-449.18 475.04,-439.98 465.2,-443.9 469.79,-449.18"/>
</g>
<!-- CaseIterable -->
<g id="node23" class="node">
<title>CaseIterable</title>
<ellipse fill="none" stroke="black" cx="370.5" cy="-473.57" rx="54.1" ry="18"/>
<text text-anchor="middle" x="370.5" y="-469.37" font-family="Times,serif" font-size="14.00">CaseIterable</text>
</g>
<!-- ModelKey&#45;&gt;CaseIterable -->
<g id="edge17" class="edge">
<title>ModelKey&#45;&gt;CaseIterable</title>
<path fill="none" stroke="black" d="M378.74,-501.11C378.71,-501.01 378.69,-500.91 378.66,-500.82"/>
<polygon fill="black" stroke="black" points="382.16,-500.31 375.94,-491.73 375.45,-502.32 382.16,-500.31"/>
</g>
<!-- QueryFieldOperation -->
<g id="node24" class="node">
<title>QueryFieldOperation</title>
<ellipse fill="none" stroke="black" cx="382.37" cy="-563.12" rx="85.99" ry="18"/>
<text text-anchor="middle" x="382.37" y="-558.92" font-family="Times,serif" font-size="14.00">QueryFieldOperation</text>
</g>
<!-- ModelKey&#45;&gt;QueryFieldOperation -->
<g id="edge18" class="edge">
<title>ModelKey&#45;&gt;QueryFieldOperation</title>
<path fill="none" stroke="black" d="M383.4,-537.26C383.4,-537.42 383.39,-537.58 383.38,-537.74"/>
<polygon fill="black" stroke="black" points="380,-534.87 383.09,-545.01 386.99,-535.15 380,-534.87"/>
</g>
<!-- QueryPredicateGroupType -->
<g id="node25" class="node">
<title>QueryPredicateGroupType</title>
<ellipse fill="none" stroke="black" cx="104.9" cy="-236.65" rx="105.01" ry="18"/>
<text text-anchor="middle" x="104.9" y="-232.45" font-family="Times,serif" font-size="14.00">QueryPredicateGroupType</text>
</g>
<!-- QueryPredicateGroupType&#45;&gt;String -->
<g id="edge19" class="edge">
<title>QueryPredicateGroupType&#45;&gt;String</title>
<path fill="none" stroke="black" d="M210.22,-236.5C228.97,-236.48 247.5,-236.45 263.16,-236.43"/>
<polygon fill="black" stroke="black" points="263.51,-239.93 273.51,-236.42 263.5,-232.93 263.51,-239.93"/>
</g>
<!-- QueryPredicateGroup -->
<g id="node26" class="node">
<title>QueryPredicateGroup</title>
<ellipse fill="none" stroke="black" cx="790.05" cy="-540.45" rx="87.91" ry="18"/>
<text text-anchor="middle" x="790.05" y="-536.25" font-family="Times,serif" font-size="14.00">QueryPredicateGroup</text>
</g>
<!-- QueryPredicate -->
<g id="node27" class="node">
<title>QueryPredicate</title>
<ellipse fill="none" stroke="black" cx="832.21" cy="-496.13" rx="65.21" ry="18"/>
<text text-anchor="middle" x="832.21" y="-491.93" font-family="Times,serif" font-size="14.00">QueryPredicate</text>
</g>
<!-- QueryPredicateGroup&#45;&gt;QueryPredicate -->
<g id="edge20" class="edge">
<title>QueryPredicateGroup&#45;&gt;QueryPredicate</title>
<path fill="none" stroke="black" d="M806.96,-522.68C807.49,-522.12 808.02,-521.56 808.56,-520.99"/>
<polygon fill="black" stroke="black" points="811.22,-523.28 815.58,-513.62 806.15,-518.45 811.22,-523.28"/>
</g>
<!-- QueryPredicateOperation -->
<g id="node28" class="node">
<title>QueryPredicateOperation</title>
<ellipse fill="none" stroke="black" cx="846.24" cy="-449.63" rx="100.43" ry="18"/>
<text text-anchor="middle" x="846.24" y="-445.43" font-family="Times,serif" font-size="14.00">QueryPredicateOperation</text>
</g>
<!-- QueryPredicateOperation&#45;&gt;QueryPredicate -->
<g id="edge21" class="edge">
<title>QueryPredicateOperation&#45;&gt;QueryPredicate</title>
<path fill="none" stroke="black" d="M840.78,-467.74C840.71,-467.95 840.65,-468.17 840.58,-468.38"/>
<polygon fill="black" stroke="black" points="837.22,-467.41 837.68,-478 843.92,-469.43 837.22,-467.41"/>
</g>
<!-- QueryField -->
<g id="node29" class="node">
<title>QueryField</title>
<ellipse fill="none" stroke="black" cx="381.45" cy="-608.72" rx="50.27" ry="18"/>
<text text-anchor="middle" x="381.45" y="-604.52" font-family="Times,serif" font-size="14.00">QueryField</text>
</g>
<!-- QueryField&#45;&gt;QueryFieldOperation -->
<g id="edge22" class="edge">
<title>QueryField&#45;&gt;QueryFieldOperation</title>
<path fill="none" stroke="black" d="M381.81,-590.7C381.82,-590.6 381.82,-590.5 381.82,-590.41"/>
<polygon fill="black" stroke="black" points="385.3,-591.38 382,-581.31 378.3,-591.24 385.3,-591.38"/>
</g>
</g>
</svg>
