<?xml version="1.0" encoding="UTF-8" standalone="no"?>
<!DOCTYPE svg PUBLIC "-//W3C//DTD SVG 1.1//EN"
 "http://www.w3.org/Graphics/SVG/1.1/DTD/svg11.dtd">
<!-- Generated by graphviz version 2.43.0 (0)
 -->
<!-- Title: Anonymous Pages: 1 -->
<svg width="2983pt" height="2467pt"
 viewBox="0.00 0.00 2983.21 2467.29" xmlns="http://www.w3.org/2000/svg" xmlns:xlink="http://www.w3.org/1999/xlink">
<g id="graph0" class="graph" transform="scale(1 1) rotate(0) translate(4 2463.29)">
<title>Anonymous</title>
<polygon fill="white" stroke="transparent" points="-4,4 -4,-2463.29 2979.21,-2463.29 2979.21,4 -4,4"/>
<!-- DataStoreError -->
<g id="node1" class="node">
<title>DataStoreError</title>
<ellipse fill="none" stroke="black" cx="1194.61" cy="-1600.08" rx="64.25" ry="18"/>
<text text-anchor="middle" x="1194.61" y="-1595.88" font-family="Times,serif" font-size="14.00">DataStoreError</text>
</g>
<!-- Error -->
<g id="node2" class="node">
<title>Error</title>
<ellipse fill="none" stroke="black" cx="1359.5" cy="-1600.08" rx="28.53" ry="18"/>
<text text-anchor="middle" x="1359.5" y="-1595.88" font-family="Times,serif" font-size="14.00">Error</text>
</g>
<!-- DataStoreError&#45;&gt;Error -->
<g id="edge1" class="edge">
<title>DataStoreError&#45;&gt;Error</title>
<path fill="none" stroke="black" d="M1258.83,-1600.08C1279.64,-1600.08 1302.08,-1600.08 1320.48,-1600.08"/>
<polygon fill="black" stroke="black" points="1320.53,-1603.58 1330.53,-1600.08 1320.53,-1596.58 1320.53,-1603.58"/>
</g>
<!-- DataStoreCategoryConfiguration -->
<g id="node3" class="node">
<title>DataStoreCategoryConfiguration</title>
<ellipse fill="none" stroke="black" cx="1596.72" cy="-809.08" rx="127.03" ry="18"/>
<text text-anchor="middle" x="1596.72" y="-804.88" font-family="Times,serif" font-size="14.00">DataStoreCategoryConfiguration</text>
</g>
<!-- CategoryConfiguration -->
<g id="node4" class="node">
<title>CategoryConfiguration</title>
<ellipse fill="none" stroke="black" cx="1887.39" cy="-809.08" rx="91.81" ry="18"/>
<text text-anchor="middle" x="1887.39" y="-804.88" font-family="Times,serif" font-size="14.00">CategoryConfiguration</text>
</g>
<!-- DataStoreCategoryConfiguration&#45;&gt;CategoryConfiguration -->
<g id="edge2" class="edge">
<title>DataStoreCategoryConfiguration&#45;&gt;CategoryConfiguration</title>
<path fill="none" stroke="black" d="M1723.79,-809.08C1744.34,-809.08 1765.39,-809.08 1785.26,-809.08"/>
<polygon fill="black" stroke="black" points="1785.53,-812.58 1795.53,-809.08 1785.53,-805.58 1785.53,-812.58"/>
</g>
<!-- DataStoreCategoryPlugin -->
<g id="node5" class="node">
<title>DataStoreCategoryPlugin</title>
<ellipse fill="none" stroke="black" cx="1863.38" cy="-1261.08" rx="100.96" ry="18"/>
<text text-anchor="middle" x="1863.38" y="-1256.88" font-family="Times,serif" font-size="14.00">DataStoreCategoryPlugin</text>
</g>
<!-- Plugin -->
<g id="node6" class="node">
<title>Plugin</title>
<ellipse fill="none" stroke="black" cx="2146.66" cy="-1261.08" rx="33.41" ry="18"/>
<text text-anchor="middle" x="2146.66" y="-1256.88" font-family="Times,serif" font-size="14.00">Plugin</text>
</g>
<!-- DataStoreCategoryPlugin&#45;&gt;Plugin -->
<g id="edge3" class="edge">
<title>DataStoreCategoryPlugin&#45;&gt;Plugin</title>
<path fill="none" stroke="black" d="M1964.45,-1261.08C2011.88,-1261.08 2065.95,-1261.08 2102.78,-1261.08"/>
<polygon fill="black" stroke="black" points="2103.17,-1264.58 2113.17,-1261.08 2103.17,-1257.58 2103.17,-1264.58"/>
</g>
<!-- DataStoreCategoryBehavior -->
<g id="node7" class="node">
<title>DataStoreCategoryBehavior</title>
<ellipse fill="none" stroke="black" cx="1580.09" cy="-1261.08" rx="110.1" ry="18"/>
<text text-anchor="middle" x="1580.09" y="-1256.88" font-family="Times,serif" font-size="14.00">DataStoreCategoryBehavior</text>
</g>
<!-- DataStoreCategoryPlugin&#45;&gt;DataStoreCategoryBehavior -->
<g id="edge4" class="edge">
<title>DataStoreCategoryPlugin&#45;&gt;DataStoreCategoryBehavior</title>
<path fill="none" stroke="black" d="M1762.3,-1261.08C1742.37,-1261.08 1721.26,-1261.08 1700.75,-1261.08"/>
<polygon fill="black" stroke="black" points="1700.74,-1257.58 1690.74,-1261.08 1700.74,-1264.58 1700.74,-1257.58"/>
</g>
<!-- MutationEvent -->
<g id="node8" class="node">
<title>MutationEvent</title>
<ellipse fill="none" stroke="black" cx="63.16" cy="-1332.08" rx="63.32" ry="18"/>
<text text-anchor="middle" x="63.16" y="-1327.88" font-family="Times,serif" font-size="14.00">MutationEvent</text>
</g>
<!-- Model -->
<g id="node9" class="node">
<title>Model</title>
<ellipse fill="none" stroke="black" cx="2311.53" cy="-1332.08" rx="33.39" ry="18"/>
<text text-anchor="middle" x="2311.53" y="-1327.88" font-family="Times,serif" font-size="14.00">Model</text>
</g>
<!-- MutationEvent&#45;&gt;Model -->
<g id="edge5" class="edge">
<title>MutationEvent&#45;&gt;Model</title>
<path fill="none" stroke="black" d="M126.53,-1332.08C458.22,-1332.08 1989.82,-1332.08 2268.1,-1332.08"/>
<polygon fill="black" stroke="black" points="2268.21,-1335.58 2278.21,-1332.08 2268.21,-1328.58 2268.21,-1335.58"/>
</g>
<!-- Codable -->
<g id="node12" class="node">
<title>Codable</title>
<ellipse fill="none" stroke="black" cx="2311.53" cy="-222.88" rx="39.66" ry="18"/>
<text text-anchor="middle" x="2311.53" y="-218.68" font-family="Times,serif" font-size="14.00">Codable</text>
</g>
<!-- Model&#45;&gt;Codable -->
<g id="edge13" class="edge">
<title>Model&#45;&gt;Codable</title>
<path fill="none" stroke="black" d="M2311.53,-1313.76C2311.53,-1184.47 2311.53,-410.32 2311.53,-251.39"/>
<polygon fill="black" stroke="black" points="2315.03,-251.02 2311.53,-241.02 2308.03,-251.02 2315.03,-251.02"/>
</g>
<!-- GraphQLMutationType -->
<g id="node10" class="node">
<title>GraphQLMutationType</title>
<ellipse fill="none" stroke="black" cx="2105.98" cy="-222.88" rx="93.95" ry="18"/>
<text text-anchor="middle" x="2105.98" y="-218.68" font-family="Times,serif" font-size="14.00">GraphQLMutationType</text>
</g>
<!-- String -->
<g id="node11" class="node">
<title>String</title>
<ellipse fill="none" stroke="black" cx="1623.77" cy="-222.88" rx="31.96" ry="18"/>
<text text-anchor="middle" x="1623.77" y="-218.68" font-family="Times,serif" font-size="14.00">String</text>
</g>
<!-- GraphQLMutationType&#45;&gt;String -->
<g id="edge6" class="edge">
<title>GraphQLMutationType&#45;&gt;String</title>
<path fill="none" stroke="black" d="M2011.86,-222.88C1907.15,-222.88 1742.63,-222.88 1665.85,-222.88"/>
<polygon fill="black" stroke="black" points="1665.62,-219.38 1655.62,-222.88 1665.62,-226.38 1665.62,-219.38"/>
</g>
<!-- GraphQLMutationType&#45;&gt;Codable -->
<g id="edge7" class="edge">
<title>GraphQLMutationType&#45;&gt;Codable</title>
<path fill="none" stroke="black" d="M2200.04,-222.88C2221.26,-222.88 2242.97,-222.88 2261.54,-222.88"/>
<polygon fill="black" stroke="black" points="2261.79,-226.38 2271.79,-222.88 2261.79,-219.38 2261.79,-226.38"/>
</g>
<!-- GraphQLQueryType -->
<g id="node13" class="node">
<title>GraphQLQueryType</title>
<ellipse fill="none" stroke="black" cx="1732.15" cy="-402.73" rx="83.8" ry="18"/>
<text text-anchor="middle" x="1732.15" y="-398.53" font-family="Times,serif" font-size="14.00">GraphQLQueryType</text>
</g>
<!-- GraphQLQueryType&#45;&gt;String -->
<g id="edge8" class="edge">
<title>GraphQLQueryType&#45;&gt;String</title>
<path fill="none" stroke="black" d="M1721.36,-384.83C1702.06,-352.8 1661.57,-285.6 1639.28,-248.63"/>
<polygon fill="black" stroke="black" points="1642.19,-246.68 1634.04,-239.92 1636.2,-250.29 1642.19,-246.68"/>
</g>
<!-- GraphQLSubscriptionType -->
<g id="node14" class="node">
<title>GraphQLSubscriptionType</title>
<ellipse fill="none" stroke="black" cx="1414.06" cy="-233.68" rx="106.02" ry="18"/>
<text text-anchor="middle" x="1414.06" y="-229.48" font-family="Times,serif" font-size="14.00">GraphQLSubscriptionType</text>
</g>
<!-- GraphQLSubscriptionType&#45;&gt;String -->
<g id="edge9" class="edge">
<title>GraphQLSubscriptionType&#45;&gt;String</title>
<path fill="none" stroke="black" d="M1515.84,-228.44C1539.09,-227.24 1562.53,-226.03 1581.61,-225.05"/>
<polygon fill="black" stroke="black" points="1581.92,-228.54 1591.72,-224.53 1581.56,-221.55 1581.92,-228.54"/>
</g>
<!-- List -->
<g id="node15" class="node">
<title>List</title>
<ellipse fill="none" stroke="black" cx="2869.33" cy="-222.88" rx="27" ry="18"/>
<text text-anchor="middle" x="2869.33" y="-218.68" font-family="Times,serif" font-size="14.00">List</text>
</g>
<!-- List&#45;&gt;Codable -->
<g id="edge11" class="edge">
<title>List&#45;&gt;Codable</title>
<path fill="none" stroke="black" d="M2842.05,-222.88C2753.92,-222.88 2475.95,-222.88 2361.51,-222.88"/>
<polygon fill="black" stroke="black" points="2361.28,-219.38 2351.28,-222.88 2361.28,-226.38 2361.28,-219.38"/>
</g>
<!-- Collection -->
<g id="node16" class="node">
<title>Collection</title>
<ellipse fill="none" stroke="black" cx="2869.33" cy="-18" rx="46.9" ry="18"/>
<text text-anchor="middle" x="2869.33" y="-13.8" font-family="Times,serif" font-size="14.00">Collection</text>
</g>
<!-- List&#45;&gt;Collection -->
<g id="edge10" class="edge">
<title>List&#45;&gt;Collection</title>
<path fill="none" stroke="black" d="M2869.33,-204.7C2869.33,-168.85 2869.33,-88.86 2869.33,-46.15"/>
<polygon fill="black" stroke="black" points="2872.83,-46.14 2869.33,-36.14 2865.83,-46.14 2872.83,-46.14"/>
</g>
<!-- ExpressibleByArrayLiteral -->
<g id="node17" class="node">
<title>ExpressibleByArrayLiteral</title>
<ellipse fill="none" stroke="black" cx="2869.33" cy="-427.76" rx="105.76" ry="18"/>
<text text-anchor="middle" x="2869.33" y="-423.56" font-family="Times,serif" font-size="14.00">ExpressibleByArrayLiteral</text>
</g>
<!-- List&#45;&gt;ExpressibleByArrayLiteral -->
<g id="edge12" class="edge">
<title>List&#45;&gt;ExpressibleByArrayLiteral</title>
<path fill="none" stroke="black" d="M2869.33,-241.06C2869.33,-276.9 2869.33,-356.9 2869.33,-399.61"/>
<polygon fill="black" stroke="black" points="2865.83,-399.62 2869.33,-409.62 2872.83,-399.62 2865.83,-399.62"/>
</g>
<!-- ModelFieldType -->
<g id="node18" class="node">
<title>ModelFieldType</title>
<ellipse fill="none" stroke="black" cx="1877.38" cy="-1600.08" rx="68.86" ry="18"/>
<text text-anchor="middle" x="1877.38" y="-1595.88" font-family="Times,serif" font-size="14.00">ModelFieldType</text>
</g>
<!-- CustomStringConvertible -->
<g id="node19" class="node">
<title>CustomStringConvertible</title>
<ellipse fill="none" stroke="black" cx="2119.3" cy="-1600.08" rx="101" ry="18"/>
<text text-anchor="middle" x="2119.3" y="-1595.88" font-family="Times,serif" font-size="14.00">CustomStringConvertible</text>
</g>
<!-- ModelFieldType&#45;&gt;CustomStringConvertible -->
<g id="edge14" class="edge">
<title>ModelFieldType&#45;&gt;CustomStringConvertible</title>
<path fill="none" stroke="black" d="M1946.38,-1600.08C1965.58,-1600.08 1986.94,-1600.08 2007.92,-1600.08"/>
<polygon fill="black" stroke="black" points="2008.17,-1603.58 2018.17,-1600.08 2008.17,-1596.58 2008.17,-1603.58"/>
</g>
<!-- AnyModel -->
<g id="node20" class="node">
<title>AnyModel</title>
<ellipse fill="none" stroke="black" cx="2311.53" cy="-2441.29" rx="48.35" ry="18"/>
<text text-anchor="middle" x="2311.53" y="-2437.09" font-family="Times,serif" font-size="14.00">AnyModel</text>
</g>
<!-- AnyModel&#45;&gt;Model -->
<g id="edge15" class="edge">
<title>AnyModel&#45;&gt;Model</title>
<path fill="none" stroke="black" d="M2311.53,-2422.96C2311.53,-2293.68 2311.53,-1519.53 2311.53,-1360.59"/>
<polygon fill="black" stroke="black" points="2315.03,-1360.23 2311.53,-1350.23 2308.03,-1360.23 2315.03,-1360.23"/>
</g>
<!-- ModelKey -->
<g id="node21" class="node">
<title>ModelKey</title>
<ellipse fill="none" stroke="black" cx="1884.38" cy="-1928.08" rx="47.86" ry="18"/>
<text text-anchor="middle" x="1884.38" y="-1923.88" font-family="Times,serif" font-size="14.00">ModelKey</text>
</g>
<!-- CodingKey -->
<g id="node22" class="node">
<title>CodingKey</title>
<ellipse fill="none" stroke="black" cx="2176.44" cy="-1928.08" rx="50.77" ry="18"/>
<text text-anchor="middle" x="2176.44" y="-1923.88" font-family="Times,serif" font-size="14.00">CodingKey</text>
</g>
<!-- ModelKey&#45;&gt;CodingKey -->
<g id="edge16" class="edge">
<title>ModelKey&#45;&gt;CodingKey</title>
<path fill="none" stroke="black" d="M1932.6,-1928.08C1982.53,-1928.08 2060.68,-1928.08 2115,-1928.08"/>
<polygon fill="black" stroke="black" points="2115.19,-1931.58 2125.19,-1928.08 2115.19,-1924.58 2115.19,-1931.58"/>
</g>
<!-- CaseIterable -->
<g id="node23" class="node">
<title>CaseIterable</title>
<ellipse fill="none" stroke="black" cx="1811.91" cy="-2211.01" rx="54.1" ry="18"/>
<text text-anchor="middle" x="1811.91" y="-2206.81" font-family="Times,serif" font-size="14.00">CaseIterable</text>
</g>
<!-- ModelKey&#45;&gt;CaseIterable -->
<g id="edge17" class="edge">
<title>ModelKey&#45;&gt;CaseIterable</title>
<path fill="none" stroke="black" d="M1879.73,-1946.21C1867.41,-1994.32 1833.82,-2125.47 1819.05,-2183.16"/>
<polygon fill="black" stroke="black" points="1815.61,-2182.48 1816.52,-2193.04 1822.39,-2184.22 1815.61,-2182.48"/>
</g>
<!-- QueryFieldOperation -->
<g id="node24" class="node">
<title>QueryFieldOperation</title>
<ellipse fill="none" stroke="black" cx="1759.22" cy="-1764.87" rx="85.99" ry="18"/>
<text text-anchor="middle" x="1759.22" y="-1760.67" font-family="Times,serif" font-size="14.00">QueryFieldOperation</text>
</g>
<!-- ModelKey&#45;&gt;QueryFieldOperation -->
<g id="edge18" class="edge">
<title>ModelKey&#45;&gt;QueryFieldOperation</title>
<path fill="none" stroke="black" d="M1870.98,-1910.62C1848.89,-1881.81 1804.71,-1824.19 1779.01,-1790.68"/>
<polygon fill="black" stroke="black" points="1781.76,-1788.51 1772.9,-1782.71 1776.2,-1792.77 1781.76,-1788.51"/>
</g>
<!-- QueryPredicateGroupType -->
<g id="node25" class="node">
<title>QueryPredicateGroupType</title>
<ellipse fill="none" stroke="black" cx="1732.15" cy="-43.02" rx="105.01" ry="18"/>
<text text-anchor="middle" x="1732.15" y="-38.82" font-family="Times,serif" font-size="14.00">QueryPredicateGroupType</text>
</g>
<!-- QueryPredicateGroupType&#45;&gt;String -->
<g id="edge19" class="edge">
<title>QueryPredicateGroupType&#45;&gt;String</title>
<path fill="none" stroke="black" d="M1721.16,-61.26C1701.81,-93.37 1661.61,-160.08 1639.39,-196.96"/>
<polygon fill="black" stroke="black" points="1636.31,-195.28 1634.15,-205.65 1642.31,-198.9 1636.31,-195.28"/>
</g>
<!-- QueryPredicateGroup -->
<g id="node26" class="node">
<title>QueryPredicateGroup</title>
<ellipse fill="none" stroke="black" cx="1556.8" cy="-1035.08" rx="87.91" ry="18"/>
<text text-anchor="middle" x="1556.8" y="-1030.88" font-family="Times,serif" font-size="14.00">QueryPredicateGroup</text>
</g>
<!-- QueryPredicate -->
<g id="node27" class="node">
<title>QueryPredicate</title>
<ellipse fill="none" stroke="black" cx="1781.61" cy="-1035.08" rx="65.21" ry="18"/>
<text text-anchor="middle" x="1781.61" y="-1030.88" font-family="Times,serif" font-size="14.00">QueryPredicate</text>
</g>
<!-- QueryPredicateGroup&#45;&gt;QueryPredicate -->
<g id="edge20" class="edge">
<title>QueryPredicateGroup&#45;&gt;QueryPredicate</title>
<path fill="none" stroke="black" d="M1644.68,-1035.08C1665.03,-1035.08 1686.5,-1035.08 1706.25,-1035.08"/>
<polygon fill="black" stroke="black" points="1706.41,-1038.58 1716.41,-1035.08 1706.41,-1031.58 1706.41,-1038.58"/>
</g>
<!-- QueryPredicateOperation -->
<g id="node28" class="node">
<title>QueryPredicateOperation</title>
<ellipse fill="none" stroke="black" cx="2019.19" cy="-1035.08" rx="100.43" ry="18"/>
<text text-anchor="middle" x="2019.19" y="-1030.88" font-family="Times,serif" font-size="14.00">QueryPredicateOperation</text>
</g>
<!-- QueryPredicateOperation&#45;&gt;QueryPredicate -->
<g id="edge21" class="edge">
<title>QueryPredicateOperation&#45;&gt;QueryPredicate</title>
<path fill="none" stroke="black" d="M1918.43,-1035.08C1897.86,-1035.08 1876.55,-1035.08 1857.05,-1035.08"/>
<polygon fill="black" stroke="black" points="1857.03,-1031.58 1847.03,-1035.08 1857.03,-1038.58 1857.03,-1031.58"/>
</g>
<!-- QueryField -->
<g id="node29" class="node">
<title>QueryField</title>
<ellipse fill="none" stroke="black" cx="1632.57" cy="-1599.71" rx="50.27" ry="18"/>
<text text-anchor="middle" x="1632.57" y="-1595.51" font-family="Times,serif" font-size="14.00">QueryField</text>
</g>
<!-- QueryField&#45;&gt;QueryFieldOperation -->
<g id="edge22" class="edge">
<title>QueryField&#45;&gt;QueryFieldOperation</title>
<path fill="none" stroke="black" d="M1645.88,-1617.07C1668.19,-1646.16 1713.23,-1704.89 1739.31,-1738.91"/>
<polygon fill="black" stroke="black" points="1736.65,-1741.19 1745.51,-1746.99 1742.2,-1736.93 1736.65,-1741.19"/>
</g>
</g>
</svg>
