<?xml version="1.0" encoding="UTF-8" standalone="no"?>
<!DOCTYPE svg PUBLIC "-//W3C//DTD SVG 1.1//EN"
 "http://www.w3.org/Graphics/SVG/1.1/DTD/svg11.dtd">
<!-- Generated by graphviz version 2.43.0 (0)
 -->
<!-- Title: Anonymous Pages: 1 -->
<svg width="818pt" height="681pt"
 viewBox="0.00 0.00 817.88 680.71" xmlns="http://www.w3.org/2000/svg" xmlns:xlink="http://www.w3.org/1999/xlink">
<g id="graph0" class="graph" transform="scale(1 1) rotate(0) translate(4 676.71)">
<title>Anonymous</title>
<polygon fill="white" stroke="transparent" points="-4,4 -4,-676.71 813.88,-676.71 813.88,4 -4,4"/>
<!-- DataStoreError -->
<g id="node1" class="node">
<title>DataStoreError</title>
<ellipse fill="none" stroke="black" cx="506.13" cy="-210.64" rx="64.25" ry="18"/>
<text text-anchor="middle" x="506.13" y="-206.44" font-family="Times,serif" font-size="14.00">DataStoreError</text>
</g>
<!-- Error -->
<g id="node2" class="node">
<title>Error</title>
<ellipse fill="none" stroke="black" cx="577.34" cy="-200" rx="28.53" ry="18"/>
<text text-anchor="middle" x="577.34" y="-195.8" font-family="Times,serif" font-size="14.00">Error</text>
</g>
<!-- DataStoreError&#45;&gt;Error -->
<g id="edge1" class="edge">
<title>DataStoreError&#45;&gt;Error</title>
<path fill="none" stroke="black" d="M562.93,-202.15C562.99,-202.14 563.06,-202.13 563.12,-202.12"/>
<polygon fill="black" stroke="black" points="553.95,-207.04 563.32,-202.09 552.91,-200.11 553.95,-207.04"/>
</g>
<!-- DataStoreCategoryConfiguration -->
<g id="node3" class="node">
<title>DataStoreCategoryConfiguration</title>
<ellipse fill="none" stroke="black" cx="647.02" cy="-366.64" rx="127.03" ry="18"/>
<text text-anchor="middle" x="647.02" y="-362.44" font-family="Times,serif" font-size="14.00">DataStoreCategoryConfiguration</text>
</g>
<!-- CategoryConfiguration -->
<g id="node4" class="node">
<title>CategoryConfiguration</title>
<ellipse fill="none" stroke="black" cx="718.22" cy="-356" rx="91.81" ry="18"/>
<text text-anchor="middle" x="718.22" y="-351.8" font-family="Times,serif" font-size="14.00">CategoryConfiguration</text>
</g>
<!-- DataStoreCategoryConfiguration&#45;&gt;CategoryConfiguration -->
<g id="edge2" class="edge">
<title>DataStoreCategoryConfiguration&#45;&gt;CategoryConfiguration</title>
<path fill="none" stroke="black" d="M718.17,-356.01C718.18,-356.01 718.19,-356.01 718.2,-356"/>
<polygon fill="black" stroke="black" points="708.86,-360.99 718.21,-356 707.79,-354.07 708.86,-360.99"/>
</g>
<!-- DataStoreCategoryPlugin -->
<g id="node5" class="node">
<title>DataStoreCategoryPlugin</title>
<ellipse fill="none" stroke="black" cx="654.26" cy="-112.21" rx="100.96" ry="18"/>
<text text-anchor="middle" x="654.26" y="-108.01" font-family="Times,serif" font-size="14.00">DataStoreCategoryPlugin</text>
</g>
<!-- Plugin -->
<g id="node6" class="node">
<title>Plugin</title>
<ellipse fill="none" stroke="black" cx="698.15" cy="-169.63" rx="33.41" ry="18"/>
<text text-anchor="middle" x="698.15" y="-165.43" font-family="Times,serif" font-size="14.00">Plugin</text>
</g>
<!-- DataStoreCategoryPlugin&#45;&gt;Plugin -->
<g id="edge3" class="edge">
<title>DataStoreCategoryPlugin&#45;&gt;Plugin</title>
<path fill="none" stroke="black" d="M667.9,-130.06C671.45,-134.7 675.34,-139.78 679.11,-144.71"/>
<polygon fill="black" stroke="black" points="676.41,-146.95 685.26,-152.76 681.97,-142.69 676.41,-146.95"/>
</g>
<!-- DataStoreCategoryBehavior -->
<g id="node7" class="node">
<title>DataStoreCategoryBehavior</title>
<ellipse fill="none" stroke="black" cx="630.3" cy="-44" rx="110.1" ry="18"/>
<text text-anchor="middle" x="630.3" y="-39.8" font-family="Times,serif" font-size="14.00">DataStoreCategoryBehavior</text>
</g>
<!-- DataStoreCategoryPlugin&#45;&gt;DataStoreCategoryBehavior -->
<g id="edge4" class="edge">
<title>DataStoreCategoryPlugin&#45;&gt;DataStoreCategoryBehavior</title>
<path fill="none" stroke="black" d="M647.84,-93.93C645.45,-87.12 642.68,-79.24 640.06,-71.77"/>
<polygon fill="black" stroke="black" points="643.35,-70.6 636.74,-62.33 636.75,-72.92 643.35,-70.6"/>
</g>
<!-- MutationEvent -->
<g id="node8" class="node">
<title>MutationEvent</title>
<ellipse fill="none" stroke="black" cx="419.29" cy="-388.65" rx="63.32" ry="18"/>
<text text-anchor="middle" x="419.29" y="-384.45" font-family="Times,serif" font-size="14.00">MutationEvent</text>
</g>
<!-- Model -->
<g id="node9" class="node">
<title>Model</title>
<ellipse fill="none" stroke="black" cx="401.87" cy="-310.35" rx="33.39" ry="18"/>
<text text-anchor="middle" x="401.87" y="-306.15" font-family="Times,serif" font-size="14.00">Model</text>
</g>
<!-- MutationEvent&#45;&gt;Model -->
<g id="edge5" class="edge">
<title>MutationEvent&#45;&gt;Model</title>
<path fill="none" stroke="black" d="M415.25,-370.49C413.12,-360.91 410.45,-348.94 408.07,-338.21"/>
<polygon fill="black" stroke="black" points="411.48,-337.42 405.89,-328.41 404.64,-338.94 411.48,-337.42"/>
</g>
<!-- Codable -->
<g id="node12" class="node">
<title>Codable</title>
<ellipse fill="none" stroke="black" cx="338.53" cy="-253.28" rx="39.66" ry="18"/>
<text text-anchor="middle" x="338.53" y="-249.08" font-family="Times,serif" font-size="14.00">Codable</text>
</g>
<!-- Model&#45;&gt;Codable -->
<g id="edge13" class="edge">
<title>Model&#45;&gt;Codable</title>
<path fill="none" stroke="black" d="M384.56,-294.76C378.35,-289.16 371.2,-282.72 364.42,-276.61"/>
<polygon fill="black" stroke="black" points="366.47,-273.75 356.7,-269.66 361.79,-278.95 366.47,-273.75"/>
</g>
<!-- GraphQLMutationType -->
<g id="node10" class="node">
<title>GraphQLMutationType</title>
<ellipse fill="none" stroke="black" cx="258.42" cy="-276.79" rx="93.95" ry="18"/>
<text text-anchor="middle" x="258.42" y="-272.59" font-family="Times,serif" font-size="14.00">GraphQLMutationType</text>
</g>
<!-- String -->
<g id="node11" class="node">
<title>String</title>
<ellipse fill="none" stroke="black" cx="180.08" cy="-301.93" rx="31.96" ry="18"/>
<text text-anchor="middle" x="180.08" y="-297.73" font-family="Times,serif" font-size="14.00">String</text>
</g>
<!-- GraphQLMutationType&#45;&gt;String -->
<g id="edge6" class="edge">
<title>GraphQLMutationType&#45;&gt;String</title>
<path fill="none" stroke="black" d="M210.14,-292.28C210.05,-292.31 209.96,-292.34 209.86,-292.37"/>
<polygon fill="black" stroke="black" points="216.34,-286.61 207.89,-293 218.48,-293.28 216.34,-286.61"/>
</g>
<!-- GraphQLMutationType&#45;&gt;Codable -->
<g id="edge7" class="edge">
<title>GraphQLMutationType&#45;&gt;Codable</title>
<path fill="none" stroke="black" d="M310.06,-261.63C310.12,-261.62 310.18,-261.6 310.24,-261.58"/>
<polygon fill="black" stroke="black" points="301.81,-267.71 310.42,-261.53 299.84,-260.99 301.81,-267.71"/>
</g>
<!-- GraphQLQueryType -->
<g id="node13" class="node">
<title>GraphQLQueryType</title>
<ellipse fill="none" stroke="black" cx="172.73" cy="-384.53" rx="83.8" ry="18"/>
<text text-anchor="middle" x="172.73" y="-380.33" font-family="Times,serif" font-size="14.00">GraphQLQueryType</text>
</g>
<!-- GraphQLQueryType&#45;&gt;String -->
<g id="edge8" class="edge">
<title>GraphQLQueryType&#45;&gt;String</title>
<path fill="none" stroke="black" d="M174.37,-366.2C175.31,-355.54 176.53,-341.89 177.59,-329.91"/>
<polygon fill="black" stroke="black" points="181.08,-330.2 178.48,-319.93 174.11,-329.58 181.08,-330.2"/>
</g>
<!-- GraphQLSubscriptionType -->
<g id="node14" class="node">
<title>GraphQLSubscriptionType</title>
<ellipse fill="none" stroke="black" cx="125.81" cy="-239.36" rx="106.02" ry="18"/>
<text text-anchor="middle" x="125.81" y="-235.16" font-family="Times,serif" font-size="14.00">GraphQLSubscriptionType</text>
</g>
<!-- GraphQLSubscriptionType&#45;&gt;String -->
<g id="edge9" class="edge">
<title>GraphQLSubscriptionType&#45;&gt;String</title>
<path fill="none" stroke="black" d="M141.51,-257.46C147,-263.79 153.25,-271 159.11,-277.74"/>
<polygon fill="black" stroke="black" points="156.52,-280.11 165.72,-285.37 161.81,-275.52 156.52,-280.11"/>
</g>
<!-- List -->
<g id="node15" class="node">
<title>List</title>
<ellipse fill="none" stroke="black" cx="359.86" cy="-170.73" rx="27" ry="18"/>
<text text-anchor="middle" x="359.86" y="-166.53" font-family="Times,serif" font-size="14.00">List</text>
</g>
<!-- List&#45;&gt;Codable -->
<g id="edge11" class="edge">
<title>List&#45;&gt;Codable</title>
<path fill="none" stroke="black" d="M355.23,-188.64C352.44,-199.46 348.82,-213.47 345.66,-225.68"/>
<polygon fill="black" stroke="black" points="342.26,-224.85 343.15,-235.4 349.04,-226.6 342.26,-224.85"/>
</g>
<!-- Collection -->
<g id="node16" class="node">
<title>Collection</title>
<ellipse fill="none" stroke="black" cx="330.66" cy="-96" rx="46.9" ry="18"/>
<text text-anchor="middle" x="330.66" y="-91.8" font-family="Times,serif" font-size="14.00">Collection</text>
</g>
<!-- List&#45;&gt;Collection -->
<g id="edge10" class="edge">
<title>List&#45;&gt;Collection</title>
<path fill="none" stroke="black" d="M352.94,-153.02C349.47,-144.15 345.2,-133.21 341.33,-123.3"/>
<polygon fill="black" stroke="black" points="344.53,-121.88 337.63,-113.84 338.01,-124.43 344.53,-121.88"/>
</g>
<!-- ExpressibleByArrayLiteral -->
<g id="node17" class="node">
<title>ExpressibleByArrayLiteral</title>
<ellipse fill="none" stroke="black" cx="426.89" cy="-126.91" rx="105.76" ry="18"/>
<text text-anchor="middle" x="426.89" y="-122.71" font-family="Times,serif" font-size="14.00">ExpressibleByArrayLiteral</text>
</g>
<!-- List&#45;&gt;ExpressibleByArrayLiteral -->
<g id="edge12" class="edge">
<title>List&#45;&gt;ExpressibleByArrayLiteral</title>
<path fill="none" stroke="black" d="M379.25,-158.05C383.1,-155.53 387.26,-152.81 391.47,-150.07"/>
<polygon fill="black" stroke="black" points="393.61,-152.85 400.06,-144.45 389.78,-146.99 393.61,-152.85"/>
</g>
<!-- ModelFieldType -->
<g id="node18" class="node">
<title>ModelFieldType</title>
<ellipse fill="none" stroke="black" cx="94.93" cy="-28.64" rx="68.86" ry="18"/>
<text text-anchor="middle" x="94.93" y="-24.44" font-family="Times,serif" font-size="14.00">ModelFieldType</text>
</g>
<!-- CustomStringConvertible -->
<g id="node19" class="node">
<title>CustomStringConvertible</title>
<ellipse fill="none" stroke="black" cx="166.14" cy="-18" rx="101" ry="18"/>
<text text-anchor="middle" x="166.14" y="-13.8" font-family="Times,serif" font-size="14.00">CustomStringConvertible</text>
</g>
<!-- ModelFieldType&#45;&gt;CustomStringConvertible -->
<g id="edge14" class="edge">
<title>ModelFieldType&#45;&gt;CustomStringConvertible</title>
<path fill="none" stroke="black" d="M155.01,-19.66C155.06,-19.65 155.12,-19.65 155.17,-19.64"/>
<polygon fill="black" stroke="black" points="145.95,-24.56 155.32,-19.62 144.91,-17.64 145.95,-24.56"/>
</g>
<!-- AnyModel -->
<g id="node20" class="node">
<title>AnyModel</title>
<ellipse fill="none" stroke="black" cx="481.99" cy="-309.52" rx="48.35" ry="18"/>
<text text-anchor="middle" x="481.99" y="-305.32" font-family="Times,serif" font-size="14.00">AnyModel</text>
</g>
<!-- AnyModel&#45;&gt;Model -->
<g id="edge15" class="edge">
<title>AnyModel&#45;&gt;Model</title>
<path fill="none" stroke="black" d="M433.54,-310.02C433.47,-310.03 433.41,-310.03 433.34,-310.03"/>
<polygon fill="black" stroke="black" points="443.11,-306.42 433.14,-310.03 443.18,-313.42 443.11,-306.42"/>
</g>
<!-- ModelKey -->
<g id="node21" class="node">
<title>ModelKey</title>
<ellipse fill="none" stroke="black" cx="585.89" cy="-504.77" rx="47.86" ry="18"/>
<text text-anchor="middle" x="585.89" y="-500.57" font-family="Times,serif" font-size="14.00">ModelKey</text>
</g>
<!-- CodingKey -->
<g id="node22" class="node">
<title>CodingKey</title>
<ellipse fill="none" stroke="black" cx="652.61" cy="-464.82" rx="50.77" ry="18"/>
<text text-anchor="middle" x="652.61" y="-460.62" font-family="Times,serif" font-size="14.00">CodingKey</text>
</g>
<!-- ModelKey&#45;&gt;CodingKey -->
<g id="edge16" class="edge">
<title>ModelKey&#45;&gt;CodingKey</title>
<path fill="none" stroke="black" d="M611.49,-489.44C613.46,-488.26 615.47,-487.06 617.49,-485.85"/>
<polygon fill="black" stroke="black" points="619.52,-488.71 626.3,-480.57 615.92,-482.71 619.52,-488.71"/>
</g>
<!-- CaseIterable -->
<g id="node23" class="node">
<title>CaseIterable</title>
<ellipse fill="none" stroke="black" cx="522.3" cy="-460" rx="54.1" ry="18"/>
<text text-anchor="middle" x="522.3" y="-455.8" font-family="Times,serif" font-size="14.00">CaseIterable</text>
</g>
<!-- ModelKey&#45;&gt;CaseIterable -->
<g id="edge17" class="edge">
<title>ModelKey&#45;&gt;CaseIterable</title>
<path fill="none" stroke="black" d="M563.29,-488.86C560.26,-486.72 557.1,-484.5 553.94,-482.28"/>
<polygon fill="black" stroke="black" points="555.88,-479.36 545.68,-476.46 551.85,-485.08 555.88,-479.36"/>
</g>
<!-- QueryFieldOperation -->
<g id="node24" class="node">
<title>QueryFieldOperation</title>
<ellipse fill="none" stroke="black" cx="582.66" cy="-581.5" rx="85.99" ry="18"/>
<text text-anchor="middle" x="582.66" y="-577.3" font-family="Times,serif" font-size="14.00">QueryFieldOperation</text>
</g>
<!-- ModelKey&#45;&gt;QueryFieldOperation -->
<g id="edge18" class="edge">
<title>ModelKey&#45;&gt;QueryFieldOperation</title>
<path fill="none" stroke="black" d="M585.12,-522.95C584.74,-532.03 584.27,-543.22 583.85,-553.37"/>
<polygon fill="black" stroke="black" points="580.34,-553.31 583.42,-563.45 587.34,-553.6 580.34,-553.31"/>
</g>
<!-- QueryPredicateGroupType -->
<g id="node25" class="node">
<title>QueryPredicateGroupType</title>
<ellipse fill="none" stroke="black" cx="105.26" cy="-326.92" rx="105.01" ry="18"/>
<text text-anchor="middle" x="105.26" y="-322.72" font-family="Times,serif" font-size="14.00">QueryPredicateGroupType</text>
</g>
<!-- QueryPredicateGroupType&#45;&gt;String -->
<g id="edge19" class="edge">
<title>QueryPredicateGroupType&#45;&gt;String</title>
<path fill="none" stroke="black" d="M153.49,-310.81C153.55,-310.79 153.6,-310.77 153.66,-310.75"/>
<polygon fill="black" stroke="black" points="145.45,-317.19 153.83,-310.7 143.23,-310.55 145.45,-317.19"/>
</g>
<!-- QueryPredicateGroup -->
<g id="node26" class="node">
<title>QueryPredicateGroup</title>
<ellipse fill="none" stroke="black" cx="243.7" cy="-585.48" rx="87.91" ry="18"/>
<text text-anchor="middle" x="243.7" y="-581.28" font-family="Times,serif" font-size="14.00">QueryPredicateGroup</text>
</g>
<!-- QueryPredicate -->
<g id="node27" class="node">
<title>QueryPredicate</title>
<ellipse fill="none" stroke="black" cx="287.72" cy="-528.15" rx="65.21" ry="18"/>
<text text-anchor="middle" x="287.72" y="-523.95" font-family="Times,serif" font-size="14.00">QueryPredicate</text>
</g>
<!-- QueryPredicateGroup&#45;&gt;QueryPredicate -->
<g id="edge20" class="edge">
<title>QueryPredicateGroup&#45;&gt;QueryPredicate</title>
<path fill="none" stroke="black" d="M257.39,-567.65C260.73,-563.3 264.38,-558.55 267.94,-553.91"/>
<polygon fill="black" stroke="black" points="270.88,-555.83 274.2,-545.77 265.33,-551.57 270.88,-555.83"/>
</g>
<!-- QueryPredicateOperation -->
<g id="node28" class="node">
<title>QueryPredicateOperation</title>
<ellipse fill="none" stroke="black" cx="311.83" cy="-460" rx="100.43" ry="18"/>
<text text-anchor="middle" x="311.83" y="-455.8" font-family="Times,serif" font-size="14.00">QueryPredicateOperation</text>
</g>
<!-- QueryPredicateOperation&#45;&gt;QueryPredicate -->
<g id="edge21" class="edge">
<title>QueryPredicateOperation&#45;&gt;QueryPredicate</title>
<path fill="none" stroke="black" d="M305.37,-478.26C302.96,-485.06 300.18,-492.94 297.54,-500.4"/>
<polygon fill="black" stroke="black" points="294.24,-499.25 294.2,-509.84 300.84,-501.58 294.24,-499.25"/>
</g>
<!-- QueryField -->
<g id="node29" class="node">
<title>QueryField</title>
<ellipse fill="none" stroke="black" cx="583.59" cy="-654.71" rx="50.27" ry="18"/>
<text text-anchor="middle" x="583.59" y="-650.51" font-family="Times,serif" font-size="14.00">QueryField</text>
</g>
<!-- QueryField&#45;&gt;QueryFieldOperation -->
<g id="edge22" class="edge">
<title>QueryField&#45;&gt;QueryFieldOperation</title>
<path fill="none" stroke="black" d="M583.36,-636.62C583.26,-628.52 583.14,-618.78 583.02,-609.76"/>
<polygon fill="black" stroke="black" points="586.52,-609.6 582.89,-599.64 579.52,-609.69 586.52,-609.6"/>
</g>
</g>
</svg>
