<?xml version="1.0" encoding="UTF-8" standalone="no"?>
<!DOCTYPE svg PUBLIC "-//W3C//DTD SVG 1.1//EN"
 "http://www.w3.org/Graphics/SVG/1.1/DTD/svg11.dtd">
<!-- Generated by graphviz version 2.43.0 (0)
 -->
<!-- Title: Anonymous Pages: 1 -->
<svg width="1339pt" height="204pt"
 viewBox="0.00 0.00 1339.00 204.00" xmlns="http://www.w3.org/2000/svg" xmlns:xlink="http://www.w3.org/1999/xlink">
<g id="graph0" class="graph" transform="scale(1 1) rotate(0) translate(4 200)">
<title>Anonymous</title>
<polygon fill="white" stroke="transparent" points="-4,4 -4,-200 1335,-200 1335,4 -4,4"/>
<!-- DataStoreError -->
<g id="node1" class="node">
<title>DataStoreError</title>
<ellipse fill="none" stroke="black" cx="804.13" cy="-98" rx="64.25" ry="18"/>
<text text-anchor="middle" x="804.13" y="-93.8" font-family="Times,serif" font-size="14.00">DataStoreError</text>
</g>
<!-- Error -->
<g id="node2" class="node">
<title>Error</title>
<ellipse fill="none" stroke="black" cx="804.77" cy="-18" rx="28.53" ry="18"/>
<text text-anchor="middle" x="804.77" y="-13.8" font-family="Times,serif" font-size="14.00">Error</text>
</g>
<!-- DataStoreError&#45;&gt;Error -->
<g id="edge1" class="edge">
<title>DataStoreError&#45;&gt;Error</title>
<path fill="none" stroke="black" d="M804.27,-79.85C804.35,-69.93 804.45,-57.42 804.54,-46.25"/>
<polygon fill="black" stroke="black" points="808.04,-46.11 804.62,-36.08 801.04,-46.05 808.04,-46.11"/>
</g>
<!-- DataStoreCategoryConfiguration -->
<g id="node3" class="node">
<title>DataStoreCategoryConfiguration</title>
<ellipse fill="none" stroke="black" cx="127.02" cy="-178" rx="127.03" ry="18"/>
<text text-anchor="middle" x="127.02" y="-173.8" font-family="Times,serif" font-size="14.00">DataStoreCategoryConfiguration</text>
</g>
<!-- CategoryConfiguration -->
<g id="node4" class="node">
<title>CategoryConfiguration</title>
<ellipse fill="none" stroke="black" cx="804.65" cy="-138" rx="91.81" ry="18"/>
<text text-anchor="middle" x="804.65" y="-133.8" font-family="Times,serif" font-size="14.00">CategoryConfiguration</text>
</g>
<!-- DataStoreCategoryConfiguration&#45;&gt;CategoryConfiguration -->
<g id="edge2" class="edge">
<title>DataStoreCategoryConfiguration&#45;&gt;CategoryConfiguration</title>
<path fill="none" stroke="black" d="M244.28,-171.08C375.08,-163.36 584.32,-151.01 706.72,-143.78"/>
<polygon fill="black" stroke="black" points="707.05,-147.27 716.83,-143.18 706.64,-140.28 707.05,-147.27"/>
</g>
<!-- DataStoreCategoryPlugin -->
<g id="node5" class="node">
<title>DataStoreCategoryPlugin</title>
<ellipse fill="none" stroke="black" cx="126.98" cy="-138" rx="100.96" ry="18"/>
<text text-anchor="middle" x="126.98" y="-133.8" font-family="Times,serif" font-size="14.00">DataStoreCategoryPlugin</text>
</g>
<!-- Plugin -->
<g id="node6" class="node">
<title>Plugin</title>
<ellipse fill="none" stroke="black" cx="126.2" cy="-18" rx="33.41" ry="18"/>
<text text-anchor="middle" x="126.2" y="-13.8" font-family="Times,serif" font-size="14.00">Plugin</text>
</g>
<!-- DataStoreCategoryPlugin&#45;&gt;Plugin -->
<g id="edge3" class="edge">
<title>DataStoreCategoryPlugin&#45;&gt;Plugin</title>
<path fill="none" stroke="black" d="M126.86,-119.77C126.74,-100.19 126.53,-68.82 126.39,-46.08"/>
<polygon fill="black" stroke="black" points="129.89,-45.98 126.32,-36 122.89,-46.03 129.89,-45.98"/>
</g>
<!-- DataStoreCategoryBehavior -->
<g id="node7" class="node">
<title>DataStoreCategoryBehavior</title>
<ellipse fill="none" stroke="black" cx="368.3" cy="-178" rx="110.1" ry="18"/>
<text text-anchor="middle" x="368.3" y="-173.8" font-family="Times,serif" font-size="14.00">DataStoreCategoryBehavior</text>
</g>
<!-- DataStoreCategoryPlugin&#45;&gt;DataStoreCategoryBehavior -->
<g id="edge4" class="edge">
<title>DataStoreCategoryPlugin&#45;&gt;DataStoreCategoryBehavior</title>
<path fill="none" stroke="black" d="M201.02,-150.27C226.21,-154.45 254.6,-159.15 280.74,-163.49"/>
<polygon fill="black" stroke="black" points="280.2,-166.94 290.63,-165.13 281.34,-160.04 280.2,-166.94"/>
</g>
<!-- MutationEvent -->
<g id="node8" class="node">
<title>MutationEvent</title>
<ellipse fill="none" stroke="black" cx="1019.16" cy="-98" rx="63.32" ry="18"/>
<text text-anchor="middle" x="1019.16" y="-93.8" font-family="Times,serif" font-size="14.00">MutationEvent</text>
</g>
<!-- Model -->
<g id="node9" class="node">
<title>Model</title>
<ellipse fill="none" stroke="black" cx="368.2" cy="-18" rx="33.39" ry="18"/>
<text text-anchor="middle" x="368.2" y="-13.8" font-family="Times,serif" font-size="14.00">Model</text>
</g>
<!-- MutationEvent&#45;&gt;Model -->
<g id="edge5" class="edge">
<title>MutationEvent&#45;&gt;Model</title>
<path fill="none" stroke="black" d="M961.1,-90.87C832.07,-75.01 523.95,-37.14 410.81,-23.24"/>
<polygon fill="black" stroke="black" points="411.14,-19.75 400.79,-22.01 410.29,-26.7 411.14,-19.75"/>
</g>
<!-- Codable -->
<g id="node12" class="node">
<title>Codable</title>
<ellipse fill="none" stroke="black" cx="1229.58" cy="-58" rx="39.66" ry="18"/>
<text text-anchor="middle" x="1229.58" y="-53.8" font-family="Times,serif" font-size="14.00">Codable</text>
</g>
<!-- Model&#45;&gt;Codable -->
<g id="edge13" class="edge">
<title>Model&#45;&gt;Codable</title>
<path fill="none" stroke="black" d="M401.44,-19.54C533.51,-25.68 1021.69,-48.35 1179.8,-55.69"/>
<polygon fill="black" stroke="black" points="1180.02,-59.2 1190.17,-56.17 1180.34,-52.21 1180.02,-59.2"/>
</g>
<!-- GraphQLMutationType -->
<g id="node10" class="node">
<title>GraphQLMutationType</title>
<ellipse fill="none" stroke="black" cx="587.97" cy="-138" rx="93.95" ry="18"/>
<text text-anchor="middle" x="587.97" y="-133.8" font-family="Times,serif" font-size="14.00">GraphQLMutationType</text>
</g>
<!-- String -->
<g id="node11" class="node">
<title>String</title>
<ellipse fill="none" stroke="black" cx="588.73" cy="-18" rx="31.96" ry="18"/>
<text text-anchor="middle" x="588.73" y="-13.8" font-family="Times,serif" font-size="14.00">String</text>
</g>
<!-- GraphQLMutationType&#45;&gt;String -->
<g id="edge6" class="edge">
<title>GraphQLMutationType&#45;&gt;String</title>
<path fill="none" stroke="black" d="M588.09,-119.77C588.21,-100.19 588.41,-68.82 588.55,-46.08"/>
<polygon fill="black" stroke="black" points="592.05,-46.03 588.61,-36 585.05,-45.98 592.05,-46.03"/>
</g>
<!-- GraphQLMutationType&#45;&gt;Codable -->
<g id="edge7" class="edge">
<title>GraphQLMutationType&#45;&gt;Codable</title>
<path fill="none" stroke="black" d="M666.97,-128.15C801.47,-111.38 1071.05,-77.77 1181.1,-64.04"/>
<polygon fill="black" stroke="black" points="1181.76,-67.49 1191.25,-62.78 1180.89,-60.54 1181.76,-67.49"/>
</g>
<!-- GraphQLQueryType -->
<g id="node13" class="node">
<title>GraphQLQueryType</title>
<ellipse fill="none" stroke="black" cx="126.65" cy="-98" rx="83.8" ry="18"/>
<text text-anchor="middle" x="126.65" y="-93.8" font-family="Times,serif" font-size="14.00">GraphQLQueryType</text>
</g>
<!-- GraphQLQueryType&#45;&gt;String -->
<g id="edge8" class="edge">
<title>GraphQLQueryType&#45;&gt;String</title>
<path fill="none" stroke="black" d="M191.87,-86.71C288.77,-69.93 467.92,-38.92 548.09,-25.04"/>
<polygon fill="black" stroke="black" points="549.02,-28.43 558.28,-23.27 547.83,-21.53 549.02,-28.43"/>
</g>
<!-- GraphQLSubscriptionType -->
<g id="node14" class="node">
<title>GraphQLSubscriptionType</title>
<ellipse fill="none" stroke="black" cx="588.26" cy="-178" rx="106.02" ry="18"/>
<text text-anchor="middle" x="588.26" y="-173.8" font-family="Times,serif" font-size="14.00">GraphQLSubscriptionType</text>
</g>
<!-- GraphQLSubscriptionType&#45;&gt;String -->
<g id="edge9" class="edge">
<title>GraphQLSubscriptionType&#45;&gt;String</title>
<path fill="none" stroke="black" d="M588.31,-159.96C588.39,-132.35 588.55,-79.37 588.64,-46.53"/>
<polygon fill="black" stroke="black" points="592.14,-46.23 588.67,-36.22 585.14,-46.21 592.14,-46.23"/>
</g>
<!-- List -->
<g id="node15" class="node">
<title>List</title>
<ellipse fill="none" stroke="black" cx="1020" cy="-18" rx="27" ry="18"/>
<text text-anchor="middle" x="1020" y="-13.8" font-family="Times,serif" font-size="14.00">List</text>
</g>
<!-- List&#45;&gt;Codable -->
<g id="edge11" class="edge">
<title>List&#45;&gt;Codable</title>
<path fill="none" stroke="black" d="M1046.12,-22.99C1080.28,-29.51 1140.73,-41.04 1182.87,-49.08"/>
<polygon fill="black" stroke="black" points="1182.41,-52.56 1192.89,-51 1183.72,-45.69 1182.41,-52.56"/>
</g>
<!-- Collection -->
<g id="node16" class="node">
<title>Collection</title>
<ellipse fill="none" stroke="black" cx="1019.95" cy="-58" rx="46.9" ry="18"/>
<text text-anchor="middle" x="1019.95" y="-53.8" font-family="Times,serif" font-size="14.00">Collection</text>
</g>
<!-- List&#45;&gt;Collection -->
<g id="edge10" class="edge">
<title>List&#45;&gt;Collection</title>
<path fill="none" stroke="black" d="M1019.98,-36.13C1019.98,-36.27 1019.98,-36.42 1019.98,-36.56"/>
<polygon fill="black" stroke="black" points="1016.49,-29.61 1019.97,-39.61 1023.49,-29.61 1016.49,-29.61"/>
</g>
<!-- ExpressibleByArrayLiteral -->
<g id="node17" class="node">
<title>ExpressibleByArrayLiteral</title>
<ellipse fill="none" stroke="black" cx="804.88" cy="-178" rx="105.76" ry="18"/>
<text text-anchor="middle" x="804.88" y="-173.8" font-family="Times,serif" font-size="14.00">ExpressibleByArrayLiteral</text>
</g>
<!-- List&#45;&gt;ExpressibleByArrayLiteral -->
<g id="edge12" class="edge">
<title>List&#45;&gt;ExpressibleByArrayLiteral</title>
<path fill="none" stroke="black" d="M1001.66,-31.64C965.02,-58.89 882.4,-120.34 836.73,-154.31"/>
<polygon fill="black" stroke="black" points="834.58,-151.54 828.65,-160.32 838.76,-157.16 834.58,-151.54"/>
</g>
<!-- ModelFieldType -->
<g id="node18" class="node">
<title>ModelFieldType</title>
<ellipse fill="none" stroke="black" cx="367.93" cy="-98" rx="68.86" ry="18"/>
<text text-anchor="middle" x="367.93" y="-93.8" font-family="Times,serif" font-size="14.00">ModelFieldType</text>
</g>
<!-- CustomStringConvertible -->
<g id="node19" class="node">
<title>CustomStringConvertible</title>
<ellipse fill="none" stroke="black" cx="1230" cy="-178" rx="101" ry="18"/>
<text text-anchor="middle" x="1230" y="-173.8" font-family="Times,serif" font-size="14.00">CustomStringConvertible</text>
</g>
<!-- ModelFieldType&#45;&gt;CustomStringConvertible -->
<g id="edge14" class="edge">
<title>ModelFieldType&#45;&gt;CustomStringConvertible</title>
<path fill="none" stroke="black" d="M433.08,-104.05C582.66,-117.93 951.51,-152.16 1130.02,-168.72"/>
<polygon fill="black" stroke="black" points="1129.92,-172.23 1140.2,-169.67 1130.57,-165.26 1129.92,-172.23"/>
</g>
<!-- AnyModel -->
<g id="node20" class="node">
<title>AnyModel</title>
<ellipse fill="none" stroke="black" cx="588.43" cy="-58" rx="48.35" ry="18"/>
<text text-anchor="middle" x="588.43" y="-53.8" font-family="Times,serif" font-size="14.00">AnyModel</text>
</g>
<!-- AnyModel&#45;&gt;Model -->
<g id="edge15" class="edge">
<title>AnyModel&#45;&gt;Model</title>
<path fill="none" stroke="black" d="M544.92,-50.1C505.68,-42.97 448.36,-32.56 409.74,-25.55"/>
<polygon fill="black" stroke="black" points="410.33,-22.09 399.86,-23.75 409.07,-28.98 410.33,-22.09"/>
</g>
<!-- ModelKey -->
<g id="node21" class="node">
<title>ModelKey</title>
<ellipse fill="none" stroke="black" cx="804.93" cy="-58" rx="47.86" ry="18"/>
<text text-anchor="middle" x="804.93" y="-53.8" font-family="Times,serif" font-size="14.00">ModelKey</text>
</g>
<!-- CodingKey -->
<g id="node22" class="node">
<title>CodingKey</title>
<ellipse fill="none" stroke="black" cx="126.88" cy="-58" rx="50.77" ry="18"/>
<text text-anchor="middle" x="126.88" y="-53.8" font-family="Times,serif" font-size="14.00">CodingKey</text>
</g>
<!-- ModelKey&#45;&gt;CodingKey -->
<g id="edge16" class="edge">
<title>ModelKey&#45;&gt;CodingKey</title>
<path fill="none" stroke="black" d="M756.98,-58C636.6,-58 321.74,-58 188.19,-58"/>
<polygon fill="black" stroke="black" points="188.13,-54.5 178.13,-58 188.13,-61.5 188.13,-54.5"/>
</g>
<!-- CaseIterable -->
<g id="node23" class="node">
<title>CaseIterable</title>
<ellipse fill="none" stroke="black" cx="1230.3" cy="-98" rx="54.1" ry="18"/>
<text text-anchor="middle" x="1230.3" y="-93.8" font-family="Times,serif" font-size="14.00">CaseIterable</text>
</g>
<!-- ModelKey&#45;&gt;CaseIterable -->
<g id="edge17" class="edge">
<title>ModelKey&#45;&gt;CaseIterable</title>
<path fill="none" stroke="black" d="M851.67,-62.4C928.51,-69.62 1081.56,-84.01 1167.69,-92.11"/>
<polygon fill="black" stroke="black" points="1167.56,-95.62 1177.85,-93.07 1168.22,-88.65 1167.56,-95.62"/>
</g>
<!-- QueryFieldOperation -->
<g id="node24" class="node">
<title>QueryFieldOperation</title>
<ellipse fill="none" stroke="black" cx="1229.75" cy="-138" rx="85.99" ry="18"/>
<text text-anchor="middle" x="1229.75" y="-133.8" font-family="Times,serif" font-size="14.00">QueryFieldOperation</text>
</g>
<!-- ModelKey&#45;&gt;QueryFieldOperation -->
<g id="edge18" class="edge">
<title>ModelKey&#45;&gt;QueryFieldOperation</title>
<path fill="none" stroke="black" d="M848,-66.11C920.21,-79.71 1066.5,-107.26 1155.54,-124.03"/>
<polygon fill="black" stroke="black" points="1155.09,-127.5 1165.57,-125.91 1156.39,-120.62 1155.09,-127.5"/>
</g>
<!-- QueryPredicateGroupType -->
<g id="node25" class="node">
<title>QueryPredicateGroupType</title>
<ellipse fill="none" stroke="black" cx="1019.26" cy="-178" rx="105.01" ry="18"/>
<text text-anchor="middle" x="1019.26" y="-173.8" font-family="Times,serif" font-size="14.00">QueryPredicateGroupType</text>
</g>
<!-- QueryPredicateGroupType&#45;&gt;String -->
<g id="edge19" class="edge">
<title>QueryPredicateGroupType&#45;&gt;String</title>
<path fill="none" stroke="black" d="M975.21,-161.63C889.91,-129.93 703.71,-60.73 625,-31.48"/>
<polygon fill="black" stroke="black" points="626.1,-28.16 615.51,-27.95 623.66,-34.72 626.1,-28.16"/>
</g>
<!-- QueryPredicateGroup -->
<g id="node26" class="node">
<title>QueryPredicateGroup</title>
<ellipse fill="none" stroke="black" cx="1019.7" cy="-138" rx="87.91" ry="18"/>
<text text-anchor="middle" x="1019.7" y="-133.8" font-family="Times,serif" font-size="14.00">QueryPredicateGroup</text>
</g>
<!-- QueryPredicate -->
<g id="node27" class="node">
<title>QueryPredicate</title>
<ellipse fill="none" stroke="black" cx="588.11" cy="-98" rx="65.21" ry="18"/>
<text text-anchor="middle" x="588.11" y="-93.8" font-family="Times,serif" font-size="14.00">QueryPredicate</text>
</g>
<!-- QueryPredicateGroup&#45;&gt;QueryPredicate -->
<g id="edge20" class="edge">
<title>QueryPredicateGroup&#45;&gt;QueryPredicate</title>
<path fill="none" stroke="black" d="M939.53,-130.57C859.39,-123.14 737.29,-111.83 660.14,-104.68"/>
<polygon fill="black" stroke="black" points="660.31,-101.18 650.03,-103.74 659.67,-108.15 660.31,-101.18"/>
</g>
<!-- QueryPredicateOperation -->
<g id="node28" class="node">
<title>QueryPredicateOperation</title>
<ellipse fill="none" stroke="black" cx="367.47" cy="-138" rx="100.43" ry="18"/>
<text text-anchor="middle" x="367.47" y="-133.8" font-family="Times,serif" font-size="14.00">QueryPredicateOperation</text>
</g>
<!-- QueryPredicateOperation&#45;&gt;QueryPredicate -->
<g id="edge21" class="edge">
<title>QueryPredicateOperation&#45;&gt;QueryPredicate</title>
<path fill="none" stroke="black" d="M438.19,-125.18C465.57,-120.21 496.71,-114.57 523.48,-109.72"/>
<polygon fill="black" stroke="black" points="524.3,-113.12 533.51,-107.9 523.05,-106.24 524.3,-113.12"/>
</g>
<!-- QueryField -->
<g id="node29" class="node">
<title>QueryField</title>
<ellipse fill="none" stroke="black" cx="367.39" cy="-58" rx="50.27" ry="18"/>
<text text-anchor="middle" x="367.39" y="-53.8" font-family="Times,serif" font-size="14.00">QueryField</text>
</g>
<!-- QueryField&#45;&gt;QueryFieldOperation -->
<g id="edge22" class="edge">
<title>QueryField&#45;&gt;QueryFieldOperation</title>
<path fill="none" stroke="black" d="M416.22,-62.53C556.27,-75.52 960.76,-113.05 1141.12,-129.78"/>
<polygon fill="black" stroke="black" points="1140.83,-133.27 1151.11,-130.7 1141.47,-126.3 1140.83,-133.27"/>
</g>
</g>
</svg>
