<?xml version="1.0" encoding="UTF-8" standalone="no"?>
<!DOCTYPE svg PUBLIC "-//W3C//DTD SVG 1.1//EN"
 "http://www.w3.org/Graphics/SVG/1.1/DTD/svg11.dtd">
<!-- Generated by graphviz version 2.43.0 (0)
 -->
<!-- Title: Anonymous Pages: 1 -->
<svg width="768pt" height="701pt"
 viewBox="0.00 0.00 768.46 701.00" xmlns="http://www.w3.org/2000/svg" xmlns:xlink="http://www.w3.org/1999/xlink">
<g id="graph0" class="graph" transform="scale(1 1) rotate(0) translate(4 697)">
<title>Anonymous</title>
<polygon fill="white" stroke="transparent" points="-4,4 -4,-697 764.46,-697 764.46,4 -4,4"/>
<!-- DataStoreError -->
<g id="node1" class="node">
<title>DataStoreError</title>
<ellipse fill="none" stroke="black" cx="425.16" cy="-18" rx="64.25" ry="18"/>
<text text-anchor="middle" x="425.16" y="-13.8" font-family="Times,serif" font-size="14.00">DataStoreError</text>
</g>
<!-- Error -->
<g id="node2" class="node">
<title>Error</title>
<ellipse fill="none" stroke="black" cx="353.16" cy="-18" rx="28.53" ry="18"/>
<text text-anchor="middle" x="353.16" y="-13.8" font-family="Times,serif" font-size="14.00">Error</text>
</g>
<!-- DataStoreError&#45;&gt;Error -->
<g id="edge1" class="edge">
<title>DataStoreError&#45;&gt;Error</title>
<path fill="none" stroke="black" d="M360.86,-18C360.79,-18 360.72,-18 360.64,-18"/>
<polygon fill="black" stroke="black" points="370.43,-14.5 360.43,-18 370.42,-21.5 370.43,-14.5"/>
</g>
<!-- DataStoreCategoryConfiguration -->
<g id="node3" class="node">
<title>DataStoreCategoryConfiguration</title>
<ellipse fill="none" stroke="black" cx="596.16" cy="-288" rx="127.03" ry="18"/>
<text text-anchor="middle" x="596.16" y="-283.8" font-family="Times,serif" font-size="14.00">DataStoreCategoryConfiguration</text>
</g>
<!-- CategoryConfiguration -->
<g id="node4" class="node">
<title>CategoryConfiguration</title>
<ellipse fill="none" stroke="black" cx="524.16" cy="-288" rx="91.81" ry="18"/>
<text text-anchor="middle" x="524.16" y="-283.8" font-family="Times,serif" font-size="14.00">CategoryConfiguration</text>
</g>
<!-- DataStoreCategoryConfiguration&#45;&gt;CategoryConfiguration -->
<g id="edge2" class="edge">
<title>DataStoreCategoryConfiguration&#45;&gt;CategoryConfiguration</title>
<path fill="none" stroke="black" d="M524.21,-288C524.2,-288 524.19,-288 524.19,-288"/>
<polygon fill="black" stroke="black" points="534.19,-284.56 524.17,-288 534.15,-291.56 534.19,-284.56"/>
</g>
<!-- DataStoreCategoryPlugin -->
<g id="node5" class="node">
<title>DataStoreCategoryPlugin</title>
<ellipse fill="none" stroke="black" cx="650.16" cy="-117" rx="100.96" ry="18"/>
<text text-anchor="middle" x="650.16" y="-112.8" font-family="Times,serif" font-size="14.00">DataStoreCategoryPlugin</text>
</g>
<!-- Plugin -->
<g id="node6" class="node">
<title>Plugin</title>
<ellipse fill="none" stroke="black" cx="650.16" cy="-189" rx="33.41" ry="18"/>
<text text-anchor="middle" x="650.16" y="-184.8" font-family="Times,serif" font-size="14.00">Plugin</text>
</g>
<!-- DataStoreCategoryPlugin&#45;&gt;Plugin -->
<g id="edge3" class="edge">
<title>DataStoreCategoryPlugin&#45;&gt;Plugin</title>
<path fill="none" stroke="black" d="M650.16,-135.17C650.16,-142.87 650.16,-152.03 650.16,-160.58"/>
<polygon fill="black" stroke="black" points="646.66,-160.59 650.16,-170.59 653.66,-160.59 646.66,-160.59"/>
</g>
<!-- DataStoreCategoryBehavior -->
<g id="node7" class="node">
<title>DataStoreCategoryBehavior</title>
<ellipse fill="none" stroke="black" cx="650.16" cy="-45" rx="110.1" ry="18"/>
<text text-anchor="middle" x="650.16" y="-40.8" font-family="Times,serif" font-size="14.00">DataStoreCategoryBehavior</text>
</g>
<!-- DataStoreCategoryPlugin&#45;&gt;DataStoreCategoryBehavior -->
<g id="edge4" class="edge">
<title>DataStoreCategoryPlugin&#45;&gt;DataStoreCategoryBehavior</title>
<path fill="none" stroke="black" d="M650.16,-98.83C650.16,-91.13 650.16,-81.97 650.16,-73.42"/>
<polygon fill="black" stroke="black" points="653.66,-73.41 650.16,-63.41 646.66,-73.41 653.66,-73.41"/>
</g>
<!-- MutationEvent -->
<g id="node8" class="node">
<title>MutationEvent</title>
<ellipse fill="none" stroke="black" cx="63.16" cy="-310" rx="63.32" ry="18"/>
<text text-anchor="middle" x="63.16" y="-305.8" font-family="Times,serif" font-size="14.00">MutationEvent</text>
</g>
<!-- Model -->
<g id="node9" class="node">
<title>Model</title>
<ellipse fill="none" stroke="black" cx="149.42" cy="-247.52" rx="33.39" ry="18"/>
<text text-anchor="middle" x="149.42" y="-243.32" font-family="Times,serif" font-size="14.00">Model</text>
</g>
<!-- MutationEvent&#45;&gt;Model -->
<g id="edge5" class="edge">
<title>MutationEvent&#45;&gt;Model</title>
<path fill="none" stroke="black" d="M86.73,-292.93C97.38,-285.21 110.06,-276.03 121.21,-267.95"/>
<polygon fill="black" stroke="black" points="123.34,-270.73 129.39,-262.03 119.23,-265.06 123.34,-270.73"/>
</g>
<!-- Codable -->
<g id="node12" class="node">
<title>Codable</title>
<ellipse fill="none" stroke="black" cx="263.14" cy="-239.81" rx="39.66" ry="18"/>
<text text-anchor="middle" x="263.14" y="-235.61" font-family="Times,serif" font-size="14.00">Codable</text>
</g>
<!-- Model&#45;&gt;Codable -->
<g id="edge13" class="edge">
<title>Model&#45;&gt;Codable</title>
<path fill="none" stroke="black" d="M182.62,-245.27C192.25,-244.61 202.99,-243.89 213.41,-243.18"/>
<polygon fill="black" stroke="black" points="213.93,-246.65 223.67,-242.48 213.45,-239.67 213.93,-246.65"/>
</g>
<!-- GraphQLMutationType -->
<g id="node10" class="node">
<title>GraphQLMutationType</title>
<ellipse fill="none" stroke="black" cx="279.16" cy="-310" rx="93.95" ry="18"/>
<text text-anchor="middle" x="279.16" y="-305.8" font-family="Times,serif" font-size="14.00">GraphQLMutationType</text>
</g>
<!-- String -->
<g id="node11" class="node">
<title>String</title>
<ellipse fill="none" stroke="black" cx="295.18" cy="-380.19" rx="31.96" ry="18"/>
<text text-anchor="middle" x="295.18" y="-375.99" font-family="Times,serif" font-size="14.00">String</text>
</g>
<!-- GraphQLMutationType&#45;&gt;String -->
<g id="edge6" class="edge">
<title>GraphQLMutationType&#45;&gt;String</title>
<path fill="none" stroke="black" d="M283.28,-328.08C284.95,-335.39 286.92,-344 288.77,-352.1"/>
<polygon fill="black" stroke="black" points="285.38,-352.96 291.01,-361.94 292.2,-351.41 285.38,-352.96"/>
</g>
<!-- GraphQLMutationType&#45;&gt;Codable -->
<g id="edge7" class="edge">
<title>GraphQLMutationType&#45;&gt;Codable</title>
<path fill="none" stroke="black" d="M275.03,-291.92C273.36,-284.61 271.4,-276 269.55,-267.9"/>
<polygon fill="black" stroke="black" points="272.94,-267.04 267.31,-258.06 266.12,-268.59 272.94,-267.04"/>
</g>
<!-- GraphQLQueryType -->
<g id="node13" class="node">
<title>GraphQLQueryType</title>
<ellipse fill="none" stroke="black" cx="408.9" cy="-372.48" rx="83.8" ry="18"/>
<text text-anchor="middle" x="408.9" y="-368.28" font-family="Times,serif" font-size="14.00">GraphQLQueryType</text>
</g>
<!-- GraphQLQueryType&#45;&gt;String -->
<g id="edge8" class="edge">
<title>GraphQLQueryType&#45;&gt;String</title>
<path fill="none" stroke="black" d="M328.99,-377.9C328.9,-377.91 328.81,-377.91 328.71,-377.92"/>
<polygon fill="black" stroke="black" points="336.53,-373.88 326.79,-378.05 337,-380.86 336.53,-373.88"/>
</g>
<!-- GraphQLSubscriptionType -->
<g id="node14" class="node">
<title>GraphQLSubscriptionType</title>
<ellipse fill="none" stroke="black" cx="311.2" cy="-450.39" rx="106.02" ry="18"/>
<text text-anchor="middle" x="311.2" y="-446.19" font-family="Times,serif" font-size="14.00">GraphQLSubscriptionType</text>
</g>
<!-- GraphQLSubscriptionType&#45;&gt;String -->
<g id="edge9" class="edge">
<title>GraphQLSubscriptionType&#45;&gt;String</title>
<path fill="none" stroke="black" d="M307.08,-432.31C305.41,-425 303.44,-416.39 301.59,-408.29"/>
<polygon fill="black" stroke="black" points="304.99,-407.42 299.35,-398.45 298.16,-408.98 304.99,-407.42"/>
</g>
<!-- List -->
<g id="node15" class="node">
<title>List</title>
<ellipse fill="none" stroke="black" cx="368.94" cy="-197.42" rx="27" ry="18"/>
<text text-anchor="middle" x="368.94" y="-193.22" font-family="Times,serif" font-size="14.00">List</text>
</g>
<!-- List&#45;&gt;Codable -->
<g id="edge11" class="edge">
<title>List&#45;&gt;Codable</title>
<path fill="none" stroke="black" d="M345.72,-206.72C333.05,-211.8 317.01,-218.22 302.45,-224.06"/>
<polygon fill="black" stroke="black" points="301.12,-220.82 293.14,-227.78 303.73,-227.31 301.12,-220.82"/>
</g>
<!-- Collection -->
<g id="node16" class="node">
<title>Collection</title>
<ellipse fill="none" stroke="black" cx="327.22" cy="-99.42" rx="46.9" ry="18"/>
<text text-anchor="middle" x="327.22" y="-95.22" font-family="Times,serif" font-size="14.00">Collection</text>
</g>
<!-- List&#45;&gt;Collection -->
<g id="edge10" class="edge">
<title>List&#45;&gt;Collection</title>
<path fill="none" stroke="black" d="M361.48,-179.9C355.21,-165.17 346.14,-143.86 338.91,-126.87"/>
<polygon fill="black" stroke="black" points="342.04,-125.28 334.9,-117.45 335.6,-128.02 342.04,-125.28"/>
</g>
<!-- ExpressibleByArrayLiteral -->
<g id="node17" class="node">
<title>ExpressibleByArrayLiteral</title>
<ellipse fill="none" stroke="black" cx="473.77" cy="-216.28" rx="105.76" ry="18"/>
<text text-anchor="middle" x="473.77" y="-212.08" font-family="Times,serif" font-size="14.00">ExpressibleByArrayLiteral</text>
</g>
<!-- List&#45;&gt;ExpressibleByArrayLiteral -->
<g id="edge12" class="edge">
<title>List&#45;&gt;ExpressibleByArrayLiteral</title>
<path fill="none" stroke="black" d="M395.12,-202.13C395.24,-202.15 395.35,-202.17 395.47,-202.19"/>
<polygon fill="black" stroke="black" points="390.28,-204.81 400.74,-203.14 391.52,-197.92 390.28,-204.81"/>
</g>
<!-- ModelFieldType -->
<g id="node18" class="node">
<title>ModelFieldType</title>
<ellipse fill="none" stroke="black" cx="200.16" cy="-18" rx="68.86" ry="18"/>
<text text-anchor="middle" x="200.16" y="-13.8" font-family="Times,serif" font-size="14.00">ModelFieldType</text>
</g>
<!-- CustomStringConvertible -->
<g id="node19" class="node">
<title>CustomStringConvertible</title>
<ellipse fill="none" stroke="black" cx="128.16" cy="-18" rx="101" ry="18"/>
<text text-anchor="middle" x="128.16" y="-13.8" font-family="Times,serif" font-size="14.00">CustomStringConvertible</text>
</g>
<!-- ModelFieldType&#45;&gt;CustomStringConvertible -->
<g id="edge14" class="edge">
<title>ModelFieldType&#45;&gt;CustomStringConvertible</title>
<path fill="none" stroke="black" d="M130.89,-18C130.84,-18 130.79,-18 130.73,-18"/>
<polygon fill="black" stroke="black" points="140.58,-14.51 130.58,-18 140.57,-21.51 140.58,-14.51"/>
</g>
<!-- AnyModel -->
<g id="node20" class="node">
<title>AnyModel</title>
<ellipse fill="none" stroke="black" cx="144.49" cy="-141.12" rx="48.35" ry="18"/>
<text text-anchor="middle" x="144.49" y="-136.92" font-family="Times,serif" font-size="14.00">AnyModel</text>
</g>
<!-- AnyModel&#45;&gt;Model -->
<g id="edge15" class="edge">
<title>AnyModel&#45;&gt;Model</title>
<path fill="none" stroke="black" d="M145.32,-159.17C146.08,-175.6 147.22,-200.13 148.11,-219.18"/>
<polygon fill="black" stroke="black" points="144.62,-219.56 148.58,-229.38 151.61,-219.23 144.62,-219.56"/>
</g>
<!-- ModelKey -->
<g id="node21" class="node">
<title>ModelKey</title>
<ellipse fill="none" stroke="black" cx="531.16" cy="-521" rx="47.86" ry="18"/>
<text text-anchor="middle" x="531.16" y="-516.8" font-family="Times,serif" font-size="14.00">ModelKey</text>
</g>
<!-- CodingKey -->
<g id="node22" class="node">
<title>CodingKey</title>
<ellipse fill="none" stroke="black" cx="567.16" cy="-583.35" rx="50.77" ry="18"/>
<text text-anchor="middle" x="567.16" y="-579.15" font-family="Times,serif" font-size="14.00">CodingKey</text>
</g>
<!-- ModelKey&#45;&gt;CodingKey -->
<g id="edge16" class="edge">
<title>ModelKey&#45;&gt;CodingKey</title>
<path fill="none" stroke="black" d="M541.38,-538.7C544.54,-544.18 548.11,-550.35 551.55,-556.32"/>
<polygon fill="black" stroke="black" points="548.76,-558.48 556.79,-565.39 554.82,-554.98 548.76,-558.48"/>
</g>
<!-- CaseIterable -->
<g id="node23" class="node">
<title>CaseIterable</title>
<ellipse fill="none" stroke="black" cx="459.16" cy="-521" rx="54.1" ry="18"/>
<text text-anchor="middle" x="459.16" y="-516.8" font-family="Times,serif" font-size="14.00">CaseIterable</text>
</g>
<!-- ModelKey&#45;&gt;CaseIterable -->
<g id="edge17" class="edge">
<title>ModelKey&#45;&gt;CaseIterable</title>
<path fill="none" stroke="black" d="M483.13,-521C483.08,-521 483.03,-521 482.98,-521"/>
<polygon fill="black" stroke="black" points="492.83,-517.51 482.82,-521 492.82,-524.51 492.83,-517.51"/>
</g>
<!-- QueryFieldOperation -->
<g id="node24" class="node">
<title>QueryFieldOperation</title>
<ellipse fill="none" stroke="black" cx="567.16" cy="-458.65" rx="85.99" ry="18"/>
<text text-anchor="middle" x="567.16" y="-454.45" font-family="Times,serif" font-size="14.00">QueryFieldOperation</text>
</g>
<!-- ModelKey&#45;&gt;QueryFieldOperation -->
<g id="edge18" class="edge">
<title>ModelKey&#45;&gt;QueryFieldOperation</title>
<path fill="none" stroke="black" d="M541.38,-503.3C544.54,-497.82 548.11,-491.65 551.55,-485.68"/>
<polygon fill="black" stroke="black" points="554.82,-487.02 556.79,-476.61 548.76,-483.52 554.82,-487.02"/>
</g>
<!-- QueryPredicateGroupType -->
<g id="node25" class="node">
<title>QueryPredicateGroupType</title>
<ellipse fill="none" stroke="black" cx="189.38" cy="-422.58" rx="105.01" ry="18"/>
<text text-anchor="middle" x="189.38" y="-418.38" font-family="Times,serif" font-size="14.00">QueryPredicateGroupType</text>
</g>
<!-- QueryPredicateGroupType&#45;&gt;String -->
<g id="edge19" class="edge">
<title>QueryPredicateGroupType&#45;&gt;String</title>
<path fill="none" stroke="black" d="M230.89,-405.95C240.43,-402.13 250.49,-398.1 259.74,-394.39"/>
<polygon fill="black" stroke="black" points="261.06,-397.64 269.04,-390.67 258.45,-391.14 261.06,-397.64"/>
</g>
<!-- QueryPredicateGroup -->
<g id="node26" class="node">
<title>QueryPredicateGroup</title>
<ellipse fill="none" stroke="black" cx="262.16" cy="-675" rx="87.91" ry="18"/>
<text text-anchor="middle" x="262.16" y="-670.8" font-family="Times,serif" font-size="14.00">QueryPredicateGroup</text>
</g>
<!-- QueryPredicate -->
<g id="node27" class="node">
<title>QueryPredicate</title>
<ellipse fill="none" stroke="black" cx="262.16" cy="-603" rx="65.21" ry="18"/>
<text text-anchor="middle" x="262.16" y="-598.8" font-family="Times,serif" font-size="14.00">QueryPredicate</text>
</g>
<!-- QueryPredicateGroup&#45;&gt;QueryPredicate -->
<g id="edge20" class="edge">
<title>QueryPredicateGroup&#45;&gt;QueryPredicate</title>
<path fill="none" stroke="black" d="M262.16,-656.83C262.16,-649.13 262.16,-639.97 262.16,-631.42"/>
<polygon fill="black" stroke="black" points="265.66,-631.41 262.16,-621.41 258.66,-631.41 265.66,-631.41"/>
</g>
<!-- QueryPredicateOperation -->
<g id="node28" class="node">
<title>QueryPredicateOperation</title>
<ellipse fill="none" stroke="black" cx="262.16" cy="-531" rx="100.43" ry="18"/>
<text text-anchor="middle" x="262.16" y="-526.8" font-family="Times,serif" font-size="14.00">QueryPredicateOperation</text>
</g>
<!-- QueryPredicateOperation&#45;&gt;QueryPredicate -->
<g id="edge21" class="edge">
<title>QueryPredicateOperation&#45;&gt;QueryPredicate</title>
<path fill="none" stroke="black" d="M262.16,-549.17C262.16,-556.87 262.16,-566.03 262.16,-574.58"/>
<polygon fill="black" stroke="black" points="258.66,-574.59 262.16,-584.59 265.66,-574.59 258.66,-574.59"/>
</g>
<!-- QueryField -->
<g id="node29" class="node">
<title>QueryField</title>
<ellipse fill="none" stroke="black" cx="603.16" cy="-396.29" rx="50.27" ry="18"/>
<text text-anchor="middle" x="603.16" y="-392.09" font-family="Times,serif" font-size="14.00">QueryField</text>
</g>
<!-- QueryField&#45;&gt;QueryFieldOperation -->
<g id="edge22" class="edge">
<title>QueryField&#45;&gt;QueryFieldOperation</title>
<path fill="none" stroke="black" d="M592.94,-413.99C589.77,-419.48 586.21,-425.65 582.77,-431.61"/>
<polygon fill="black" stroke="black" points="579.5,-430.27 577.53,-440.68 585.56,-433.77 579.5,-430.27"/>
</g>
</g>
</svg>
