<?xml version="1.0" encoding="UTF-8" standalone="no"?>
<!DOCTYPE svg PUBLIC "-//W3C//DTD SVG 1.1//EN"
 "http://www.w3.org/Graphics/SVG/1.1/DTD/svg11.dtd">
<!-- Generated by graphviz version 2.43.0 (0)
 -->
<!-- Title: Anonymous Pages: 1 -->
<svg width="1812pt" height="1108pt"
 viewBox="0.00 0.00 1812.01 1107.82" xmlns="http://www.w3.org/2000/svg" xmlns:xlink="http://www.w3.org/1999/xlink">
<g id="graph0" class="graph" transform="scale(1 1) rotate(0) translate(4 1103.82)">
<title>Anonymous</title>
<polygon fill="white" stroke="transparent" points="-4,4 -4,-1103.82 1808.01,-1103.82 1808.01,4 -4,4"/>
<!-- DataStoreError -->
<g id="node1" class="node">
<title>DataStoreError</title>
<ellipse fill="none" stroke="black" cx="480.13" cy="-330" rx="64.25" ry="18"/>
<text text-anchor="middle" x="480.13" y="-325.8" font-family="Times,serif" font-size="14.00">DataStoreError</text>
</g>
<!-- Error -->
<g id="node2" class="node">
<title>Error</title>
<ellipse fill="none" stroke="black" cx="739.32" cy="-330" rx="28.53" ry="18"/>
<text text-anchor="middle" x="739.32" y="-325.8" font-family="Times,serif" font-size="14.00">Error</text>
</g>
<!-- DataStoreError&#45;&gt;Error -->
<g id="edge1" class="edge">
<title>DataStoreError&#45;&gt;Error</title>
<path fill="none" stroke="black" d="M544.53,-330C593.35,-330 658.87,-330 700.09,-330"/>
<polygon fill="black" stroke="black" points="700.28,-333.5 710.28,-330 700.28,-326.5 700.28,-333.5"/>
</g>
<!-- DataStoreCategoryConfiguration -->
<g id="node3" class="node">
<title>DataStoreCategoryConfiguration</title>
<ellipse fill="none" stroke="black" cx="1011.02" cy="-18" rx="127.03" ry="18"/>
<text text-anchor="middle" x="1011.02" y="-13.8" font-family="Times,serif" font-size="14.00">DataStoreCategoryConfiguration</text>
</g>
<!-- CategoryConfiguration -->
<g id="node4" class="node">
<title>CategoryConfiguration</title>
<ellipse fill="none" stroke="black" cx="1495.2" cy="-18" rx="91.81" ry="18"/>
<text text-anchor="middle" x="1495.2" y="-13.8" font-family="Times,serif" font-size="14.00">CategoryConfiguration</text>
</g>
<!-- DataStoreCategoryConfiguration&#45;&gt;CategoryConfiguration -->
<g id="edge2" class="edge">
<title>DataStoreCategoryConfiguration&#45;&gt;CategoryConfiguration</title>
<path fill="none" stroke="black" d="M1138.23,-18C1217.71,-18 1318.69,-18 1392.95,-18"/>
<polygon fill="black" stroke="black" points="1393.25,-21.5 1403.25,-18 1393.25,-14.5 1393.25,-21.5"/>
</g>
<!-- DataStoreCategoryPlugin -->
<g id="node5" class="node">
<title>DataStoreCategoryPlugin</title>
<ellipse fill="none" stroke="black" cx="1269.52" cy="-434" rx="100.96" ry="18"/>
<text text-anchor="middle" x="1269.52" y="-429.8" font-family="Times,serif" font-size="14.00">DataStoreCategoryPlugin</text>
</g>
<!-- Plugin -->
<g id="node6" class="node">
<title>Plugin</title>
<ellipse fill="none" stroke="black" cx="917.2" cy="-434" rx="33.41" ry="18"/>
<text text-anchor="middle" x="917.2" y="-429.8" font-family="Times,serif" font-size="14.00">Plugin</text>
</g>
<!-- DataStoreCategoryPlugin&#45;&gt;Plugin -->
<g id="edge3" class="edge">
<title>DataStoreCategoryPlugin&#45;&gt;Plugin</title>
<path fill="none" stroke="black" d="M1168.09,-434C1099.43,-434 1012.19,-434 960.75,-434"/>
<polygon fill="black" stroke="black" points="960.65,-430.5 950.65,-434 960.65,-437.5 960.65,-430.5"/>
</g>
<!-- DataStoreCategoryBehavior -->
<g id="node7" class="node">
<title>DataStoreCategoryBehavior</title>
<ellipse fill="none" stroke="black" cx="1629.61" cy="-434" rx="110.1" ry="18"/>
<text text-anchor="middle" x="1629.61" y="-429.8" font-family="Times,serif" font-size="14.00">DataStoreCategoryBehavior</text>
</g>
<!-- DataStoreCategoryPlugin&#45;&gt;DataStoreCategoryBehavior -->
<g id="edge4" class="edge">
<title>DataStoreCategoryPlugin&#45;&gt;DataStoreCategoryBehavior</title>
<path fill="none" stroke="black" d="M1370.78,-434C1413.72,-434 1464.09,-434 1508.94,-434"/>
<polygon fill="black" stroke="black" points="1509.01,-437.5 1519.01,-434 1509.01,-430.5 1509.01,-437.5"/>
</g>
<!-- MutationEvent -->
<g id="node8" class="node">
<title>MutationEvent</title>
<ellipse fill="none" stroke="black" cx="951.44" cy="-114.69" rx="63.32" ry="18"/>
<text text-anchor="middle" x="951.44" y="-110.49" font-family="Times,serif" font-size="14.00">MutationEvent</text>
</g>
<!-- Model -->
<g id="node9" class="node">
<title>Model</title>
<ellipse fill="none" stroke="black" cx="803.35" cy="-203.45" rx="33.39" ry="18"/>
<text text-anchor="middle" x="803.35" y="-199.25" font-family="Times,serif" font-size="14.00">Model</text>
</g>
<!-- MutationEvent&#45;&gt;Model -->
<g id="edge5" class="edge">
<title>MutationEvent&#45;&gt;Model</title>
<path fill="none" stroke="black" d="M924.28,-130.97C899.03,-146.1 861.43,-168.64 834.87,-184.56"/>
<polygon fill="black" stroke="black" points="832.75,-181.75 825.98,-189.89 836.35,-187.75 832.75,-181.75"/>
</g>
<!-- Codable -->
<g id="node12" class="node">
<title>Codable</title>
<ellipse fill="none" stroke="black" cx="762.36" cy="-429.37" rx="39.66" ry="18"/>
<text text-anchor="middle" x="762.36" y="-425.17" font-family="Times,serif" font-size="14.00">Codable</text>
</g>
<!-- Model&#45;&gt;Codable -->
<g id="edge13" class="edge">
<title>Model&#45;&gt;Codable</title>
<path fill="none" stroke="black" d="M800.06,-221.56C792.94,-260.8 776.04,-353.96 767.5,-401.06"/>
<polygon fill="black" stroke="black" points="764,-400.72 765.66,-411.18 770.89,-401.97 764,-400.72"/>
</g>
<!-- GraphQLMutationType -->
<g id="node10" class="node">
<title>GraphQLMutationType</title>
<ellipse fill="none" stroke="black" cx="522.73" cy="-462.65" rx="93.95" ry="18"/>
<text text-anchor="middle" x="522.73" y="-458.45" font-family="Times,serif" font-size="14.00">GraphQLMutationType</text>
</g>
<!-- String -->
<g id="node11" class="node">
<title>String</title>
<ellipse fill="none" stroke="black" cx="282.63" cy="-467.85" rx="31.96" ry="18"/>
<text text-anchor="middle" x="282.63" y="-463.65" font-family="Times,serif" font-size="14.00">String</text>
</g>
<!-- GraphQLMutationType&#45;&gt;String -->
<g id="edge6" class="edge">
<title>GraphQLMutationType&#45;&gt;String</title>
<path fill="none" stroke="black" d="M429.22,-464.67C393.1,-465.46 353.6,-466.31 324.72,-466.94"/>
<polygon fill="black" stroke="black" points="324.51,-463.44 314.58,-467.16 324.66,-470.44 324.51,-463.44"/>
</g>
<!-- GraphQLMutationType&#45;&gt;Codable -->
<g id="edge7" class="edge">
<title>GraphQLMutationType&#45;&gt;Codable</title>
<path fill="none" stroke="black" d="M598.88,-452.07C636.6,-446.84 681,-440.67 714.01,-436.09"/>
<polygon fill="black" stroke="black" points="714.88,-439.5 724.3,-434.66 713.91,-432.57 714.88,-439.5"/>
</g>
<!-- GraphQLQueryType -->
<g id="node13" class="node">
<title>GraphQLQueryType</title>
<ellipse fill="none" stroke="black" cx="83.65" cy="-457.13" rx="83.8" ry="18"/>
<text text-anchor="middle" x="83.65" y="-452.93" font-family="Times,serif" font-size="14.00">GraphQLQueryType</text>
</g>
<!-- GraphQLQueryType&#45;&gt;String -->
<g id="edge8" class="edge">
<title>GraphQLQueryType&#45;&gt;String</title>
<path fill="none" stroke="black" d="M164.87,-461.51C191.03,-462.92 218.94,-464.42 241.01,-465.61"/>
<polygon fill="black" stroke="black" points="240.86,-469.11 251.04,-466.15 241.24,-462.12 240.86,-469.11"/>
</g>
<!-- GraphQLSubscriptionType -->
<g id="node14" class="node">
<title>GraphQLSubscriptionType</title>
<ellipse fill="none" stroke="black" cx="240.03" cy="-279.76" rx="106.02" ry="18"/>
<text text-anchor="middle" x="240.03" y="-275.56" font-family="Times,serif" font-size="14.00">GraphQLSubscriptionType</text>
</g>
<!-- GraphQLSubscriptionType&#45;&gt;String -->
<g id="edge9" class="edge">
<title>GraphQLSubscriptionType&#45;&gt;String</title>
<path fill="none" stroke="black" d="M244.12,-297.8C251.58,-330.73 267.45,-400.8 276.31,-439.94"/>
<polygon fill="black" stroke="black" points="272.94,-440.89 278.56,-449.87 279.76,-439.35 272.94,-440.89"/>
</g>
<!-- List -->
<g id="node15" class="node">
<title>List</title>
<ellipse fill="none" stroke="black" cx="957.75" cy="-577.45" rx="27" ry="18"/>
<text text-anchor="middle" x="957.75" y="-573.25" font-family="Times,serif" font-size="14.00">List</text>
</g>
<!-- List&#45;&gt;Codable -->
<g id="edge11" class="edge">
<title>List&#45;&gt;Codable</title>
<path fill="none" stroke="black" d="M939.72,-563.78C905.76,-538.05 832.07,-482.21 791.17,-451.21"/>
<polygon fill="black" stroke="black" points="793.05,-448.24 782.97,-444.99 788.83,-453.82 793.05,-448.24"/>
</g>
<!-- Collection -->
<g id="node16" class="node">
<title>Collection</title>
<ellipse fill="none" stroke="black" cx="1149.79" cy="-562.46" rx="46.9" ry="18"/>
<text text-anchor="middle" x="1149.79" y="-558.26" font-family="Times,serif" font-size="14.00">Collection</text>
</g>
<!-- List&#45;&gt;Collection -->
<g id="edge10" class="edge">
<title>List&#45;&gt;Collection</title>
<path fill="none" stroke="black" d="M984.86,-575.33C1012.9,-573.14 1057.52,-569.66 1093.28,-566.87"/>
<polygon fill="black" stroke="black" points="1093.89,-570.33 1103.58,-566.07 1093.34,-563.35 1093.89,-570.33"/>
</g>
<!-- ExpressibleByArrayLiteral -->
<g id="node17" class="node">
<title>ExpressibleByArrayLiteral</title>
<ellipse fill="none" stroke="black" cx="1025.11" cy="-759.87" rx="105.76" ry="18"/>
<text text-anchor="middle" x="1025.11" y="-755.67" font-family="Times,serif" font-size="14.00">ExpressibleByArrayLiteral</text>
</g>
<!-- List&#45;&gt;ExpressibleByArrayLiteral -->
<g id="edge12" class="edge">
<title>List&#45;&gt;ExpressibleByArrayLiteral</title>
<path fill="none" stroke="black" d="M964.21,-594.94C975.97,-626.78 1000.95,-694.43 1014.99,-732.45"/>
<polygon fill="black" stroke="black" points="1011.72,-733.72 1018.47,-741.89 1018.29,-731.3 1011.72,-733.72"/>
</g>
<!-- ModelFieldType -->
<g id="node18" class="node">
<title>ModelFieldType</title>
<ellipse fill="none" stroke="black" cx="1108.93" cy="-226" rx="68.86" ry="18"/>
<text text-anchor="middle" x="1108.93" y="-221.8" font-family="Times,serif" font-size="14.00">ModelFieldType</text>
</g>
<!-- CustomStringConvertible -->
<g id="node19" class="node">
<title>CustomStringConvertible</title>
<ellipse fill="none" stroke="black" cx="1505.92" cy="-226" rx="101" ry="18"/>
<text text-anchor="middle" x="1505.92" y="-221.8" font-family="Times,serif" font-size="14.00">CustomStringConvertible</text>
</g>
<!-- ModelFieldType&#45;&gt;CustomStringConvertible -->
<g id="edge14" class="edge">
<title>ModelFieldType&#45;&gt;CustomStringConvertible</title>
<path fill="none" stroke="black" d="M1178.08,-226C1237.79,-226 1325.16,-226 1394.69,-226"/>
<polygon fill="black" stroke="black" points="1394.81,-229.5 1404.81,-226 1394.81,-222.5 1394.81,-229.5"/>
</g>
<!-- AnyModel -->
<g id="node20" class="node">
<title>AnyModel</title>
<ellipse fill="none" stroke="black" cx="742.83" cy="-18" rx="48.35" ry="18"/>
<text text-anchor="middle" x="742.83" y="-13.8" font-family="Times,serif" font-size="14.00">AnyModel</text>
</g>
<!-- AnyModel&#45;&gt;Model -->
<g id="edge15" class="edge">
<title>AnyModel&#45;&gt;Model</title>
<path fill="none" stroke="black" d="M748.74,-36.12C759.39,-68.75 781.85,-137.56 794.39,-176"/>
<polygon fill="black" stroke="black" points="791.07,-177.11 797.5,-185.53 797.73,-174.94 791.07,-177.11"/>
</g>
<!-- ModelKey -->
<g id="node21" class="node">
<title>ModelKey</title>
<ellipse fill="none" stroke="black" cx="891.02" cy="-861.91" rx="47.86" ry="18"/>
<text text-anchor="middle" x="891.02" y="-857.71" font-family="Times,serif" font-size="14.00">ModelKey</text>
</g>
<!-- CodingKey -->
<g id="node22" class="node">
<title>CodingKey</title>
<ellipse fill="none" stroke="black" cx="730.27" cy="-642" rx="50.77" ry="18"/>
<text text-anchor="middle" x="730.27" y="-637.8" font-family="Times,serif" font-size="14.00">CodingKey</text>
</g>
<!-- ModelKey&#45;&gt;CodingKey -->
<g id="edge16" class="edge">
<title>ModelKey&#45;&gt;CodingKey</title>
<path fill="none" stroke="black" d="M878.14,-844.28C849.86,-805.6 782.25,-713.11 749.17,-667.84"/>
<polygon fill="black" stroke="black" points="751.94,-665.72 743.22,-659.71 746.29,-669.85 751.94,-665.72"/>
</g>
<!-- CaseIterable -->
<g id="node23" class="node">
<title>CaseIterable</title>
<ellipse fill="none" stroke="black" cx="730.3" cy="-1081.82" rx="54.1" ry="18"/>
<text text-anchor="middle" x="730.3" y="-1077.62" font-family="Times,serif" font-size="14.00">CaseIterable</text>
</g>
<!-- ModelKey&#45;&gt;CaseIterable -->
<g id="edge17" class="edge">
<title>ModelKey&#45;&gt;CaseIterable</title>
<path fill="none" stroke="black" d="M878.14,-879.53C849.87,-918.22 782.27,-1010.71 749.19,-1055.97"/>
<polygon fill="black" stroke="black" points="746.32,-1053.97 743.24,-1064.11 751.97,-1058.1 746.32,-1053.97"/>
</g>
<!-- QueryFieldOperation -->
<g id="node24" class="node">
<title>QueryFieldOperation</title>
<ellipse fill="none" stroke="black" cx="1183.59" cy="-861.88" rx="85.99" ry="18"/>
<text text-anchor="middle" x="1183.59" y="-857.68" font-family="Times,serif" font-size="14.00">QueryFieldOperation</text>
</g>
<!-- ModelKey&#45;&gt;QueryFieldOperation -->
<g id="edge18" class="edge">
<title>ModelKey&#45;&gt;QueryFieldOperation</title>
<path fill="none" stroke="black" d="M939.01,-861.9C979.2,-861.9 1037.81,-861.89 1087.59,-861.89"/>
<polygon fill="black" stroke="black" points="1087.74,-865.39 1097.74,-861.89 1087.74,-858.39 1087.74,-865.39"/>
</g>
<!-- QueryPredicateGroupType -->
<g id="node25" class="node">
<title>QueryPredicateGroupType</title>
<ellipse fill="none" stroke="black" cx="225.39" cy="-652.81" rx="105.01" ry="18"/>
<text text-anchor="middle" x="225.39" y="-648.61" font-family="Times,serif" font-size="14.00">QueryPredicateGroupType</text>
</g>
<!-- QueryPredicateGroupType&#45;&gt;String -->
<g id="edge19" class="edge">
<title>QueryPredicateGroupType&#45;&gt;String</title>
<path fill="none" stroke="black" d="M230.98,-634.73C241.01,-602.33 262.11,-534.15 274.01,-495.72"/>
<polygon fill="black" stroke="black" points="277.49,-496.31 277.1,-485.72 270.8,-494.24 277.49,-496.31"/>
</g>
<!-- QueryPredicateGroup -->
<g id="node26" class="node">
<title>QueryPredicateGroup</title>
<ellipse fill="none" stroke="black" cx="971.7" cy="-330" rx="87.91" ry="18"/>
<text text-anchor="middle" x="971.7" y="-325.8" font-family="Times,serif" font-size="14.00">QueryPredicateGroup</text>
</g>
<!-- QueryPredicate -->
<g id="node27" class="node">
<title>QueryPredicate</title>
<ellipse fill="none" stroke="black" cx="1339.04" cy="-330" rx="65.21" ry="18"/>
<text text-anchor="middle" x="1339.04" y="-325.8" font-family="Times,serif" font-size="14.00">QueryPredicate</text>
</g>
<!-- QueryPredicateGroup&#45;&gt;QueryPredicate -->
<g id="edge20" class="edge">
<title>QueryPredicateGroup&#45;&gt;QueryPredicate</title>
<path fill="none" stroke="black" d="M1059.69,-330C1121.99,-330 1204.66,-330 1263.88,-330"/>
<polygon fill="black" stroke="black" points="1263.91,-333.5 1273.91,-330 1263.91,-326.5 1263.91,-333.5"/>
</g>
<!-- QueryPredicateOperation -->
<g id="node28" class="node">
<title>QueryPredicateOperation</title>
<ellipse fill="none" stroke="black" cx="1703.54" cy="-330" rx="100.43" ry="18"/>
<text text-anchor="middle" x="1703.54" y="-325.8" font-family="Times,serif" font-size="14.00">QueryPredicateOperation</text>
</g>
<!-- QueryPredicateOperation&#45;&gt;QueryPredicate -->
<g id="edge21" class="edge">
<title>QueryPredicateOperation&#45;&gt;QueryPredicate</title>
<path fill="none" stroke="black" d="M1602.97,-330C1543.38,-330 1469.11,-330 1414.54,-330"/>
<polygon fill="black" stroke="black" points="1414.25,-326.5 1404.25,-330 1414.25,-333.5 1414.25,-326.5"/>
</g>
<!-- QueryField -->
<g id="node29" class="node">
<title>QueryField</title>
<ellipse fill="none" stroke="black" cx="1446" cy="-861.91" rx="50.27" ry="18"/>
<text text-anchor="middle" x="1446" y="-857.71" font-family="Times,serif" font-size="14.00">QueryField</text>
</g>
<!-- QueryField&#45;&gt;QueryFieldOperation -->
<g id="edge22" class="edge">
<title>QueryField&#45;&gt;QueryFieldOperation</title>
<path fill="none" stroke="black" d="M1395.41,-861.9C1362.59,-861.9 1318.8,-861.9 1279.55,-861.89"/>
<polygon fill="black" stroke="black" points="1279.41,-858.39 1269.41,-861.89 1279.41,-865.39 1279.41,-858.39"/>
</g>
</g>
</svg>
