<?xml version="1.0" encoding="UTF-8" standalone="no"?>
<!DOCTYPE svg PUBLIC "-//W3C//DTD SVG 1.1//EN"
 "http://www.w3.org/Graphics/SVG/1.1/DTD/svg11.dtd">
<!-- Generated by graphviz version 2.43.0 (0)
 -->
<!-- Title: Anonymous Pages: 1 -->
<svg width="178pt" height="178pt"
 viewBox="0.00 0.00 178.29 178.29" xmlns="http://www.w3.org/2000/svg" xmlns:xlink="http://www.w3.org/1999/xlink">
<g id="graph0" class="graph" transform="scale(1 1) rotate(0) translate(4 174.29)">
<title>Anonymous</title>
<polygon fill="white" stroke="transparent" points="-4,4 -4,-174.29 174.29,-174.29 174.29,4 -4,4"/>
<!-- DataStoreError -->
<g id="node1" class="node">
<title>DataStoreError</title>
<polygon fill="none" stroke="black" points="170.23,-35.23 141.98,-35.23 141.98,-0 170.23,-0 170.23,-35.23"/>
<text text-anchor="middle" x="156.1" y="-13.42" font-family="Times,serif" font-size="14.00">DataStoreError</text>
</g>
<!-- Error -->
<g id="node2" class="node">
<title>Error</title>
<polygon fill="none" stroke="black" points="68.12,-170.29 34.06,-170.29 34.06,-140.93 68.12,-140.93 68.12,-170.29"/>
<text text-anchor="middle" x="51.09" y="-151.41" font-family="Times,serif" font-size="14.00">Error</text>
</g>
<!-- DataStoreCategoryConfiguration -->
<g id="node3" class="node">
<title>DataStoreCategoryConfiguration</title>
<polygon fill="none" stroke="black" points="102.18,-170.29 68.11,-170.29 68.11,-140.93 102.18,-140.93 102.18,-170.29"/>
<text text-anchor="middle" x="85.15" y="-151.41" font-family="Times,serif" font-size="14.00">DataStoreCategoryConfiguration</text>
</g>
<!-- CategoryConfiguration -->
<g id="node4" class="node">
<title>CategoryConfiguration</title>
<polygon fill="none" stroke="black" points="136.25,-170.29 102.17,-170.29 102.17,-140.93 136.25,-140.93 136.25,-170.29"/>
<text text-anchor="middle" x="119.21" y="-151.41" font-family="Times,serif" font-size="14.00">CategoryConfiguration</text>
</g>
<!-- DataStoreCategoryPlugin -->
<g id="node5" class="node">
<title>DataStoreCategoryPlugin</title>
<polygon fill="none" stroke="black" points="170.28,-170.29 136.25,-170.29 136.25,-140.93 170.28,-140.93 170.28,-170.29"/>
<text text-anchor="middle" x="153.26" y="-151.41" font-family="Times,serif" font-size="14.00">DataStoreCategoryPlugin</text>
</g>
<!-- Plugin -->
<g id="node6" class="node">
<title>Plugin</title>
<polygon fill="none" stroke="black" points="28.38,-140.93 0,-140.93 0,-105.7 28.38,-105.7 28.38,-140.93"/>
<text text-anchor="middle" x="14.19" y="-119.12" font-family="Times,serif" font-size="14.00">Plugin</text>
</g>
<!-- DataStoreCategoryBehavior -->
<g id="node7" class="node">
<title>DataStoreCategoryBehavior</title>
<polygon fill="none" stroke="black" points="28.35,-105.7 0.03,-105.7 0.03,-70.47 28.35,-70.47 28.35,-105.7"/>
<text text-anchor="middle" x="14.19" y="-83.88" font-family="Times,serif" font-size="14.00">DataStoreCategoryBehavior</text>
</g>
<!-- MutationEvent -->
<g id="node8" class="node">
<title>MutationEvent</title>
<polygon fill="none" stroke="black" points="28.38,-70.47 0,-70.47 0,-35.23 28.38,-35.23 28.38,-70.47"/>
<text text-anchor="middle" x="14.19" y="-48.65" font-family="Times,serif" font-size="14.00">MutationEvent</text>
</g>
<!-- Model -->
<g id="node9" class="node">
<title>Model</title>
<polygon fill="none" stroke="black" points="28.38,-35.23 0,-35.23 0,0 28.38,0 28.38,-35.23"/>
<text text-anchor="middle" x="14.19" y="-13.42" font-family="Times,serif" font-size="14.00">Model</text>
</g>
<!-- Codable -->
<g id="node12" class="node">
<title>Codable</title>
<polygon fill="none" stroke="black" points="56.69,-70.47 28.46,-70.47 28.46,-35.23 56.69,-35.23 56.69,-70.47"/>
<text text-anchor="middle" x="42.57" y="-48.65" font-family="Times,serif" font-size="14.00">Codable</text>
</g>
<!-- GraphQLMutationType -->
<g id="node10" class="node">
<title>GraphQLMutationType</title>
<polygon fill="none" stroke="black" points="56.74,-140.93 28.4,-140.93 28.4,-105.7 56.74,-105.7 56.74,-140.93"/>
<text text-anchor="middle" x="42.57" y="-119.12" font-family="Times,serif" font-size="14.00">GraphQLMutationType</text>
</g>
<!-- String -->
<g id="node11" class="node">
<title>String</title>
<polygon fill="none" stroke="black" points="56.76,-105.7 28.38,-105.7 28.38,-70.47 56.76,-70.47 56.76,-105.7"/>
<text text-anchor="middle" x="42.57" y="-83.88" font-family="Times,serif" font-size="14.00">String</text>
</g>
<!-- GraphQLQueryType -->
<g id="node13" class="node">
<title>GraphQLQueryType</title>
<polygon fill="none" stroke="black" points="56.81,-35.23 28.34,-35.23 28.34,0 56.81,0 56.81,-35.23"/>
<text text-anchor="middle" x="42.57" y="-13.42" font-family="Times,serif" font-size="14.00">GraphQLQueryType</text>
</g>
<!-- GraphQLSubscriptionType -->
<g id="node14" class="node">
<title>GraphQLSubscriptionType</title>
<polygon fill="none" stroke="black" points="85.17,-140.93 56.75,-140.93 56.75,-105.7 85.17,-105.7 85.17,-140.93"/>
<text text-anchor="middle" x="70.96" y="-119.12" font-family="Times,serif" font-size="14.00">GraphQLSubscriptionType</text>
</g>
<!-- List -->
<g id="node15" class="node">
<title>List</title>
<polygon fill="none" stroke="black" points="113.53,-140.93 85.15,-140.93 85.15,-105.7 113.53,-105.7 113.53,-140.93"/>
<text text-anchor="middle" x="99.34" y="-119.12" font-family="Times,serif" font-size="14.00">List</text>
</g>
<!-- Collection -->
<g id="node16" class="node">
<title>Collection</title>
<polygon fill="none" stroke="black" points="141.97,-140.93 113.47,-140.93 113.47,-105.7 141.97,-105.7 141.97,-140.93"/>
<text text-anchor="middle" x="127.72" y="-119.12" font-family="Times,serif" font-size="14.00">Collection</text>
</g>
<!-- ExpressibleByArrayLiteral -->
<g id="node17" class="node">
<title>ExpressibleByArrayLiteral</title>
<polygon fill="none" stroke="black" points="170.26,-140.93 141.94,-140.93 141.94,-105.7 170.26,-105.7 170.26,-140.93"/>
<text text-anchor="middle" x="156.1" y="-119.12" font-family="Times,serif" font-size="14.00">ExpressibleByArrayLiteral</text>
</g>
<!-- ModelFieldType -->
<g id="node18" class="node">
<title>ModelFieldType</title>
<polygon fill="none" stroke="black" points="85.16,-105.7 56.75,-105.7 56.75,-70.47 85.16,-70.47 85.16,-105.7"/>
<text text-anchor="middle" x="70.96" y="-83.88" font-family="Times,serif" font-size="14.00">ModelFieldType</text>
</g>
<!-- CustomStringConvertible -->
<g id="node19" class="node">
<title>CustomStringConvertible</title>
<polygon fill="none" stroke="black" points="85.14,-70.47 56.77,-70.47 56.77,-35.23 85.14,-35.23 85.14,-70.47"/>
<text text-anchor="middle" x="70.96" y="-48.65" font-family="Times,serif" font-size="14.00">CustomStringConvertible</text>
</g>
<!-- AnyModel -->
<g id="node20" class="node">
<title>AnyModel</title>
<polygon fill="none" stroke="black" points="85.08,-35.23 56.83,-35.23 56.83,0 85.08,0 85.08,-35.23"/>
<text text-anchor="middle" x="70.96" y="-13.42" font-family="Times,serif" font-size="14.00">AnyModel</text>
</g>
<!-- ModelKey -->
<g id="node21" class="node">
<title>ModelKey</title>
<polygon fill="none" stroke="black" points="113.51,-105.7 85.17,-105.7 85.17,-70.47 113.51,-70.47 113.51,-105.7"/>
<text text-anchor="middle" x="99.34" y="-83.88" font-family="Times,serif" font-size="14.00">ModelKey</text>
</g>
<!-- CodingKey -->
<g id="node22" class="node">
<title>CodingKey</title>
<polygon fill="none" stroke="black" points="141.83,-105.7 113.61,-105.7 113.61,-70.47 141.83,-70.47 141.83,-105.7"/>
<text text-anchor="middle" x="127.72" y="-83.88" font-family="Times,serif" font-size="14.00">CodingKey</text>
</g>
<!-- CaseIterable -->
<g id="node23" class="node">
<title>CaseIterable</title>
<polygon fill="none" stroke="black" points="170.29,-105.7 141.92,-105.7 141.92,-70.47 170.29,-70.47 170.29,-105.7"/>
<text text-anchor="middle" x="156.1" y="-83.88" font-family="Times,serif" font-size="14.00">CaseIterable</text>
</g>
<!-- QueryFieldOperation -->
<g id="node24" class="node">
<title>QueryFieldOperation</title>
<polygon fill="none" stroke="black" points="113.5,-70.47 85.17,-70.47 85.17,-35.23 113.5,-35.23 113.5,-70.47"/>
<text text-anchor="middle" x="99.34" y="-48.65" font-family="Times,serif" font-size="14.00">QueryFieldOperation</text>
</g>
<!-- QueryPredicateGroupType -->
<g id="node25" class="node">
<title>QueryPredicateGroupType</title>
<polygon fill="none" stroke="black" points="113.5,-35.23 85.18,-35.23 85.18,0 113.5,0 113.5,-35.23"/>
<text text-anchor="middle" x="99.34" y="-13.42" font-family="Times,serif" font-size="14.00">QueryPredicateGroupType</text>
</g>
<!-- QueryPredicateGroup -->
<g id="node26" class="node">
<title>QueryPredicateGroup</title>
<polygon fill="none" stroke="black" points="141.9,-70.47 113.54,-70.47 113.54,-35.23 141.9,-35.23 141.9,-70.47"/>
<text text-anchor="middle" x="127.72" y="-48.65" font-family="Times,serif" font-size="14.00">QueryPredicateGroup</text>
</g>
<!-- QueryPredicate -->
<g id="node27" class="node">
<title>QueryPredicate</title>
<polygon fill="none" stroke="black" points="170.3,-70.47 141.9,-70.47 141.9,-35.23 170.3,-35.23 170.3,-70.47"/>
<text text-anchor="middle" x="156.1" y="-48.65" font-family="Times,serif" font-size="14.00">QueryPredicate</text>
</g>
<!-- QueryPredicateOperation -->
<g id="node28" class="node">
<title>QueryPredicateOperation</title>
<polygon fill="none" stroke="black" points="141.91,-35.23 113.52,-35.23 113.52,0 141.91,0 141.91,-35.23"/>
<text text-anchor="middle" x="127.72" y="-13.42" font-family="Times,serif" font-size="14.00">QueryPredicateOperation</text>
</g>
<!-- QueryField -->
<g id="node29" class="node">
<title>QueryField</title>
<polygon fill="none" stroke="black" points="34.01,-170.29 0.05,-170.29 0.05,-140.93 34.01,-140.93 34.01,-170.29"/>
<text text-anchor="middle" x="17.03" y="-151.41" font-family="Times,serif" font-size="14.00">QueryField</text>
</g>
</g>
</svg>
